<svg width="23" height="20" viewBox="0 0 23 20" fill="none" xmlns="http://www.w3.org/2000/svg">
<g clip-path="url(#clip0_1371_435)">
<path d="M0.299472 20C0.202874 19.8165 0.0483171 19.6427 0.0193377 19.4495C-0.0289614 19.1019 0.0193377 18.7446 1.80406e-05 18.3969C-0.00964177 18.0782 0.125595 17.9141 0.454029 17.9237C0.550627 17.9237 0.647225 17.9237 0.743823 17.9237C7.92106 17.9237 15.0886 17.9237 22.2659 17.9334C22.5074 17.9334 22.7489 18.0299 22.9904 18.0782C22.9904 18.7156 22.9904 19.3626 22.9904 20C15.4364 20 7.8631 20 0.299472 20Z" fill="#F96921"/>
<path d="M11.5246 8.18927C14.1037 8.18927 16.6829 8.18927 19.2717 8.18927C20.7304 8.18927 21.4452 8.91356 21.4548 10.3814C21.4548 10.4008 21.4548 10.4104 21.4548 10.4297C21.6287 11.2796 21.2327 11.7624 20.4792 12.0908C19.7161 12.4191 18.9819 12.4867 18.3154 11.9169C17.987 11.6369 17.7165 11.2989 17.446 10.9609C17.0886 10.5263 16.7505 10.5166 16.3834 10.9416C16.1419 11.2216 15.9005 11.5017 15.63 11.7431C14.8669 12.4288 14.0265 12.506 13.1667 11.9556C12.7803 11.7045 12.4326 11.3858 12.0945 11.0671C11.6308 10.6325 11.428 10.6325 10.974 11.0864C10.7131 11.3472 10.4427 11.5983 10.1432 11.8107C9.12893 12.5447 8.21125 12.4964 7.26459 11.6852C7.11969 11.5596 6.98445 11.4244 6.85887 11.2796C6.21167 10.536 6.07643 10.536 5.42922 11.3085C4.55018 12.3515 3.4393 12.5833 2.20285 12.0232C1.71986 11.8011 1.53632 11.4631 1.58462 10.9609C1.6136 10.7194 1.64258 10.478 1.6136 10.2462C1.44938 9.05842 2.4057 8.16996 3.64216 8.17961C6.25997 8.20858 8.88743 8.18927 11.5246 8.18927Z" fill="#F96921"/>
<path d="M21.2613 16.62C14.7602 16.62 8.28816 16.62 1.78711 16.62C1.78711 15.606 1.78711 14.592 1.78711 13.5394C3.4003 14.0802 4.81063 13.7325 5.96981 12.4867C7.90177 14.3409 9.67917 14.0898 11.5435 12.4288C13.8522 14.4375 15.5137 13.9739 17.0882 12.3998C17.6195 12.9696 18.1991 13.4911 18.9912 13.6939C19.7737 13.8967 20.5078 13.7325 21.2806 13.4042C21.2613 14.4858 21.2613 15.5287 21.2613 16.62Z" fill="#F96921"/>
<path d="M10.143 7.2815C10.143 6.32544 10.1334 5.3887 10.1527 4.44229C10.1624 4.13326 10.3845 3.94978 10.7033 3.94978C11.2346 3.94012 11.7659 3.94012 12.2875 3.94978C12.6546 3.94978 12.8671 4.16224 12.8671 4.51955C12.8864 5.42732 12.8768 6.34475 12.8768 7.2815C11.9591 7.2815 11.0704 7.2815 10.143 7.2815Z" fill="#F96921"/>
<path d="M11.5149 0C11.7467 0.424916 12.0172 0.907774 12.278 1.40029C12.3939 1.6224 12.5485 1.84452 12.6161 2.08595C12.761 2.61709 12.5292 3.19652 12.1138 3.4283C11.6984 3.66007 11.0609 3.59247 10.7228 3.28344C10.3654 2.94544 10.2495 2.29841 10.5006 1.82521C10.8291 1.18783 11.1865 0.569773 11.5149 0Z" fill="#F96921"/>
</g>
<defs>
<clipPath id="clip0_1371_435">
<rect width="23" height="20" fill="#F96921"/>
</clipPath>
</defs>
</svg>
