<svg width="22" height="17" viewBox="0 0 22 17" fill="none" xmlns="http://www.w3.org/2000/svg">
<g clip-path="url(#clip0_1371_423)">
<path d="M11.0212 -0.000352881C13.8227 -0.000352881 16.6185 -0.00602144 19.4199 0.00531567C19.7863 0.00531567 20.1583 0.0449956 20.5134 0.124355C21.1503 0.271738 21.59 0.679874 21.8662 1.2694C22.1086 1.78524 22.0297 2.06867 21.5562 2.3691C20.9418 2.76023 20.3218 3.1457 19.7074 3.53683C17.0243 5.2544 14.3412 6.96063 11.6694 8.68954C11.1847 9.00698 10.8014 8.99564 10.3166 8.68387C7.06426 6.58084 3.79498 4.50615 0.53134 2.42012C0.4637 2.37477 0.390423 2.33509 0.328419 2.28974C0.00712795 2.06867 -0.0548757 1.89294 0.0578581 1.52449C0.334056 0.61752 1.02173 0.090344 2.0307 0.0336585C2.43654 0.0109842 2.84238 0.0109842 3.24259 0.00531567C5.83546 0.00531567 8.42834 0.00531567 11.0212 -0.000352881C11.0212 0.00531567 11.0212 -0.000352881 11.0212 -0.000352881Z" fill="#F96921"/>
<path d="M10.9749 17C8.1284 17 5.28751 17.0057 2.44098 16.9944C2.08587 16.9944 1.71949 16.9547 1.37565 16.8583C0.682335 16.6599 0.253947 16.1667 0.045389 15.4809C-0.0617081 15.1237 0.000295491 14.948 0.321587 14.7439C2.94828 13.0831 5.57498 11.4222 8.20168 9.76127C8.47788 9.58555 8.77099 9.58555 9.04718 9.74994C9.54321 10.0447 10.028 10.3508 10.5127 10.6626C10.9129 10.9233 11.082 10.929 11.471 10.6739C11.9839 10.3395 12.5025 10.0164 13.0154 9.68191C13.2916 9.50052 13.5396 9.55721 13.7933 9.72159C14.6331 10.2658 15.473 10.8043 16.3185 11.3428C18.0433 12.4425 19.7738 13.5309 21.4986 14.6306C22.0285 14.965 22.113 15.2428 21.8537 15.804C21.4986 16.5635 20.8561 16.8867 20.0725 16.983C19.8753 17.0057 19.678 17.0057 19.4807 17.0057C16.6454 17 13.8102 17 10.9749 17Z" fill="#F96921"/>
<path d="M0.0400391 13.0604C0.0400391 10.0107 0.0400391 7.01202 0.0400391 3.96234C2.41872 5.48718 4.76359 6.98368 7.14791 8.50852C4.76922 10.0334 2.42436 11.5355 0.0400391 13.0604Z" fill="#F96921"/>
<path d="M14.8701 8.50852C17.2432 6.98935 19.588 5.48718 21.9667 3.96234C21.9667 7.00069 21.9667 9.99368 21.9667 13.049C19.5937 11.5355 17.2488 10.0334 14.8701 8.50852Z" fill="#F96921"/>
</g>
<defs>
<clipPath id="clip0_1371_423">
<rect width="22" height="17" fill="#F96921"/>
</clipPath>
</defs>
</svg>
