<svg width="17" height="22" viewBox="0 0 17 22" fill="none" xmlns="http://www.w3.org/2000/svg">
<g clip-path="url(#clip0_1371_457)">
<path d="M8.49485 18.0444C8.21021 17.7124 7.93674 17.3974 7.66885 17.0796C6.22334 15.3486 4.85598 13.5581 3.67278 11.6314C3.13979 10.7659 2.67377 9.86637 2.27472 8.92712C1.54081 7.19334 1.66638 5.48793 2.47564 3.83644C3.52209 1.70256 5.23828 0.43131 7.56002 0.0766086C11.1319 -0.468213 14.5252 2.07996 15.1084 5.68089C15.2982 6.86134 15.1168 7.96801 14.662 9.05197C14.1541 10.2608 13.4983 11.3845 12.7839 12.4713C11.5086 14.4065 10.0827 16.2198 8.56461 17.9621C8.54787 17.9819 8.52834 18.0046 8.49485 18.0444ZM11.8519 6.23706C11.8547 4.35856 10.3478 2.82909 8.49764 2.82909C6.64472 2.82909 5.14061 4.35573 5.14061 6.23423C5.14061 8.11272 6.64472 9.6422 8.49485 9.6422C10.345 9.6422 11.8491 8.1184 11.8519 6.23706Z" fill="#F96921"/>
<path d="M5.8846 15.7317C5.5609 15.78 5.23998 15.8254 4.92186 15.8821C3.96191 16.0495 3.0215 16.2851 2.13411 16.7079C1.78808 16.8753 1.45879 17.0682 1.18811 17.3492C0.752787 17.8032 0.752787 18.2686 1.19927 18.7141C1.57879 19.0943 2.05039 19.3156 2.53874 19.5086C3.48473 19.8775 4.47258 20.079 5.47439 20.2152C6.85571 20.4053 8.2454 20.4507 9.63788 20.3826C11.1978 20.306 12.741 20.1073 14.2283 19.5909C14.6692 19.4377 15.099 19.256 15.4785 18.9723C15.6487 18.8446 15.8134 18.697 15.9445 18.5296C16.1985 18.2061 16.2068 17.8458 15.9445 17.5308C15.7659 17.3151 15.5455 17.1193 15.3111 16.9661C14.6553 16.5376 13.9186 16.2936 13.1651 16.1176C12.54 15.9729 11.9066 15.8793 11.2759 15.7629C11.2201 15.7516 11.1671 15.7431 11.1113 15.7346C11.2145 15.5132 11.2341 15.5076 11.4601 15.5246C12.3922 15.5984 13.3214 15.7005 14.2339 15.9077C14.7306 16.0183 15.2218 16.1517 15.671 16.3929C15.9529 16.5433 16.2319 16.7192 16.4636 16.9349C17.0579 17.4911 17.164 18.2629 16.7845 18.9893C16.5808 19.3809 16.2822 19.6902 15.9417 19.9598C15.1994 20.5472 14.3539 20.9359 13.4665 21.2339C11.5996 21.861 9.67695 22.0681 7.71799 21.983C6.21388 21.9149 4.74327 21.668 3.32009 21.1516C2.44386 20.8338 1.60948 20.4365 0.895105 19.8122C0.582564 19.5398 0.317462 19.222 0.150029 18.8332C-0.131816 18.1778 -0.00345087 17.4854 0.490476 16.9774C0.903476 16.5518 1.42531 16.3163 1.96946 16.1318C2.71454 15.8793 3.48473 15.7488 4.2605 15.6523C4.69025 15.5984 5.11999 15.5672 5.55252 15.5218C5.76182 15.5019 5.77856 15.5132 5.8846 15.7317Z" fill="#F96921"/>
</g>
<defs>
<clipPath id="clip0_1371_457">
<rect width="17" height="22" fill="#F96921"/>
</clipPath>
</defs>
</svg>
