<svg width="20" height="20" viewBox="0 0 20 20" fill="none" xmlns="http://www.w3.org/2000/svg">
<g clip-path="url(#clip0_1371_448)">
<path d="M4.03788 8.65636C5.68074 11.8074 8.01407 14.1974 11.0974 15.8383C11.2284 15.9096 11.5379 15.8264 11.6688 15.7075C12.3712 15.0416 13.0617 14.3639 13.7284 13.6623C14.0974 13.2699 14.5022 13.2105 15.0141 13.3056C16.2284 13.5196 17.4545 13.7337 18.6807 13.8763C19.6569 13.9952 20.0022 14.3163 20.0022 15.3151C20.0022 16.3853 20.0022 17.4435 20.0022 18.5137C20.0022 19.6671 19.6331 20.0238 18.4545 20C10.0736 19.8573 2.57359 13.912 0.597401 5.75505C0.252163 4.31629 0.14502 2.80618 0.0140678 1.31986C-0.0692655 0.439952 0.41883 0.0118906 1.29978 0.0118906C2.46645 0 3.63312 0 4.79978 0C5.65693 0 6.01407 0.39239 6.12121 1.24851C6.28788 2.50892 6.51407 3.76932 6.75216 5.01784C6.8474 5.55291 6.75216 5.98098 6.35931 6.36147C5.57359 7.12247 4.81169 7.88347 4.03788 8.65636Z" fill="#F96921"/>
</g>
<defs>
<clipPath id="clip0_1371_448">
<rect width="20" height="20" fill="#F96921"/>
</clipPath>
</defs>
</svg>
