<svg xmlns="http://www.w3.org/2000/svg" width="26" height="20" viewBox="0 0 26 20" fill="none">
<g clip-path="url(#clip0_12_171)">
<path d="M13.0249 -0.000469008C16.3357 -0.000469008 19.6398 -0.0071379 22.9506 0.00619988C23.3836 0.00619988 23.8233 0.0528821 24.243 0.146247C24.9957 0.319638 25.5153 0.799798 25.8417 1.49336C26.1282 2.10023 26.0349 2.43368 25.4753 2.78713C24.7492 3.24728 24.0165 3.70076 23.2904 4.16092C20.1195 6.18159 16.9486 8.18893 13.791 10.2229C13.2181 10.5964 12.7651 10.5831 12.1922 10.2163C8.34852 7.74211 4.48483 5.3013 0.627797 2.84715C0.547859 2.7938 0.461259 2.74711 0.387982 2.69376C0.00827413 2.43368 -0.0650029 2.22694 0.068228 1.79346C0.394644 0.72644 1.20735 0.106233 2.39977 0.0395443C2.8794 0.0128688 3.35903 0.0128688 3.832 0.00619988C6.89631 0.00619988 9.96062 0.00619988 13.0249 -0.000469008C13.0249 0.00619988 13.0249 -0.000469008 13.0249 -0.000469008Z" fill="#080a11"/>
<path d="M12.9701 20C9.60603 20 6.24862 20.0067 2.88454 19.9934C2.46486 19.9934 2.03186 19.9467 1.6255 19.8333C0.806135 19.5999 0.299858 19.0197 0.0533808 18.2128C-0.0731885 17.7926 8.843e-05 17.5859 0.379796 17.3458C3.48408 15.3918 6.58835 13.4378 9.69263 11.4838C10.019 11.2771 10.3654 11.2771 10.6919 11.4705C11.2781 11.8173 11.851 12.1774 12.4239 12.5442C12.8968 12.851 13.0967 12.8576 13.5563 12.5575C14.1625 12.1641 14.7754 11.7839 15.3816 11.3905C15.708 11.1771 16.0011 11.2438 16.3009 11.4372C17.2935 12.0774 18.286 12.7109 19.2853 13.3445C21.3237 14.6382 23.3688 15.9187 25.4072 17.2124C26.0334 17.6059 26.1333 17.9327 25.8269 18.5929C25.4072 19.4865 24.6478 19.8666 23.7218 19.98C23.4887 20.0067 23.2555 20.0067 23.0224 20.0067C19.6716 20 16.3209 20 12.9701 20Z" fill="#080a11"/>
<path d="M0.0470581 15.3651C0.0470581 11.7773 0.0470581 8.24942 0.0470581 4.66156C2.85823 6.45549 5.62943 8.21608 8.44727 10.01C5.63609 11.8039 2.86489 13.5712 0.0470581 15.3651Z" fill="#080a11"/>
<path d="M17.5732 10.01C20.3778 8.22275 23.149 6.45549 25.9601 4.66156C25.9601 8.23608 25.9601 11.7573 25.9601 15.3518C23.1556 13.5712 20.3844 11.8039 17.5732 10.01Z" fill="#080a11"/>
</g>
<defs>
<clipPath id="clip0_12_171">
<rect width="26" height="20" fill="#080a11"/>
</clipPath>
</defs>
</svg>
