<svg xmlns="http://www.w3.org/2000/svg" width="26" height="26" viewBox="0 0 26 26" fill="none">
<g clip-path="url(#clip0_12_163)">
<path d="M5.24875 11.2533C7.38447 15.3496 10.4178 18.4566 14.4261 20.5898C14.5964 20.6825 14.9988 20.5743 15.169 20.4197C16.0821 19.5541 16.9797 18.673 17.8464 17.761C18.3261 17.2509 18.8523 17.1736 19.5178 17.2973C21.0964 17.5755 22.6904 17.8537 24.2845 18.0392C25.5535 18.1938 26.0023 18.6112 26.0023 19.9096C26.0023 21.3008 26.0023 22.6766 26.0023 24.0678C26.0023 25.5672 25.5226 26.0309 23.9904 26C13.0952 25.8145 3.34518 18.0856 0.776133 7.48157C0.327324 5.61118 0.188038 3.64804 0.0177999 1.71581C-0.0905334 0.571938 0.54399 0.0154578 1.68923 0.0154578C3.2059 0 4.72256 0 6.23923 0C7.35351 0 7.8178 0.510107 7.95709 1.62307C8.17375 3.26159 8.4678 4.90012 8.77732 6.52319C8.90113 7.21879 8.77732 7.77527 8.26661 8.26992C7.24518 9.25922 6.2547 10.2485 5.24875 11.2533Z" fill="#080a11"/>
</g>
<defs>
<clipPath id="clip0_12_163">
<rect width="26" height="26" fill="#080a11"/>
</clipPath>
</defs>
</svg>
