<svg width="25" height="25" viewBox="0 0 25 25" fill="none" xmlns="http://www.w3.org/2000/svg">
<path d="M15.413 0.540771H22.4892C23.572 0.540851 24.4597 1.42874 24.4599 2.51147V9.58765C24.4598 10.6777 23.5731 11.5583 22.4892 11.5583H15.413C14.3221 11.5581 13.4424 10.6786 13.4423 9.58765V2.51147C13.4425 1.42774 14.3232 0.540993 15.413 0.540771Z" stroke="#080a11"/>
<path d="M2.97168 0.500122H8.74609C10.113 0.50023 11.2178 1.61264 11.2178 2.9718V8.74622C11.2177 10.1141 10.114 11.2178 8.74609 11.2179H2.97168C1.61252 11.2179 0.500108 10.1131 0.5 8.74622V2.9718L0.512695 2.71985C0.631537 1.56131 1.56119 0.63166 2.71973 0.512817L2.97168 0.500122Z" stroke="#080a11"/>
<path d="M2.97168 13.783H8.74609C10.114 13.7831 11.2178 14.8867 11.2178 16.2546V22.0291C11.2177 23.3881 10.1129 24.5006 8.74609 24.5007H2.97168C1.6136 24.5007 0.500109 23.3871 0.5 22.0291V16.2546L0.512695 16.0017C0.631233 14.837 1.56023 13.9136 2.71973 13.7957L2.97168 13.783Z" stroke="#080a11"/>
<path d="M16.254 13.783H22.0284C23.3875 13.7831 24.5001 14.8877 24.5001 16.2546V22.0291C24.5 23.387 23.3864 24.5006 22.0284 24.5007H16.254C14.8871 24.5007 13.7824 23.3882 13.7823 22.0291V16.2546L13.795 16.0007C13.913 14.8359 14.8352 13.9136 16.0001 13.7957L16.254 13.783Z" stroke="#080a11"/>
</svg>
