<svg xmlns="http://www.w3.org/2000/svg" width="50" height="40" viewBox="0 0 50 40" fill="none">
<path d="M18.459 0.5H31.2676C32.3714 0.5 33.3447 1.22403 33.6621 2.28125L34.3076 4.43066C34.498 5.06514 35.0817 5.5 35.7441 5.5H45C47.4853 5.5 49.5 7.51472 49.5 10V35C49.5 37.4853 47.4853 39.5 45 39.5H5C2.51472 39.5 0.5 37.4853 0.5 35V10C0.5 7.51472 2.51472 5.5 5 5.5H7.5V4C7.5 3.72386 7.72386 3.5 8 3.5H11C11.2761 3.5 11.5 3.72386 11.5 4V5.5H14.1807C14.8955 5.49978 15.5112 4.99493 15.6514 4.29395L16.0078 2.50977C16.2269 1.41417 17.1427 0.60637 18.2383 0.509766L18.459 0.5Z" fill="#ffffff" stroke="#f68338"/>
<path d="M25.001 7.77277C32.7579 7.77301 39.0459 14.0617 39.0459 21.8187C39.0457 29.5754 32.7577 35.8633 25.001 35.8636C17.244 35.8636 10.9553 29.5756 10.9551 21.8187C10.9551 14.0616 17.2439 7.77277 25.001 7.77277Z" fill="#f68338"/>
</svg>
