<svg width="31" height="20" viewBox="0 0 31 20" fill="none" xmlns="http://www.w3.org/2000/svg">
<path d="M2.4375 0C4.0875 0 5.7375 0 7.4375 0C7.4375 0.403333 7.4375 0.806667 7.4375 1.22222C7.85 1.22222 8.2625 1.22222 8.6875 1.22222C8.6875 1.62556 8.6875 2.02889 8.6875 2.44444C9.1 2.44444 9.5125 2.44444 9.9375 2.44444C9.9375 2.84778 9.9375 3.25111 9.9375 3.66667C10.35 3.66667 10.7625 3.66667 11.1875 3.66667C11.1875 3.26333 11.1875 2.86 11.1875 2.44444C11.6 2.44444 12.0125 2.44444 12.4375 2.44444C12.4375 2.04111 12.4375 1.63778 12.4375 1.22222C12.85 1.22222 13.2625 1.22222 13.6875 1.22222C13.6875 0.818889 13.6875 0.415556 13.6875 0C15.3375 0 16.9875 0 18.6875 0C18.6875 0.403333 18.6875 0.806667 18.6875 1.22222C19.1 1.22222 19.5125 1.22222 19.9375 1.22222C19.9375 1.62556 19.9375 2.02889 19.9375 2.44444C20.3294 2.44444 20.7212 2.44444 21.125 2.44444C21.125 4.86444 21.125 7.28445 21.125 9.77778C20.7331 9.77778 20.3413 9.77778 19.9375 9.77778C19.9375 10.5844 19.9375 11.3911 19.9375 12.2222C19.525 12.2222 19.1125 12.2222 18.6875 12.2222C18.6875 12.6256 18.6875 13.0289 18.6875 13.4444C18.275 13.4444 17.8625 13.4444 17.4375 13.4444C17.4375 13.8478 17.4375 14.2511 17.4375 14.6667C17.025 14.6667 16.6125 14.6667 16.1875 14.6667C16.1875 15.07 16.1875 15.4733 16.1875 15.8889C15.775 15.8889 15.3625 15.8889 14.9375 15.8889C14.9375 16.2922 14.9375 16.6956 14.9375 17.1111C14.1125 17.1111 13.2875 17.1111 12.4375 17.1111C12.4375 17.5144 12.4375 17.9178 12.4375 18.3333C11.2 18.3333 9.9625 18.3333 8.6875 18.3333C8.6875 17.93 8.6875 17.5267 8.6875 17.1111C7.8625 17.1111 7.0375 17.1111 6.1875 17.1111C6.1875 16.7078 6.1875 16.3044 6.1875 15.8889C5.775 15.8889 5.3625 15.8889 4.9375 15.8889C4.9375 15.4856 4.9375 15.0822 4.9375 14.6667C4.525 14.6667 4.1125 14.6667 3.6875 14.6667C3.6875 14.2633 3.6875 13.86 3.6875 13.4444C3.275 13.4444 2.8625 13.4444 2.4375 13.4444C2.4375 12.6378 2.4375 11.8311 2.4375 11C2.025 11 1.6125 11 1.1875 11C1.1875 10.1933 1.1875 9.38667 1.1875 8.55556C0.795625 8.55556 0.40375 8.55556 0 8.55556C0 6.53889 0 4.52222 0 2.44444C0.391875 2.44444 0.78375 2.44444 1.1875 2.44444C1.1875 2.04111 1.1875 1.63778 1.1875 1.22222C1.6 1.22222 2.0125 1.22222 2.4375 1.22222C2.4375 0.818889 2.4375 0.415556 2.4375 0Z" fill="#FF9496"/>
<path d="M15 1.28345C15.8044 1.28345 16.6087 1.28345 17.4375 1.28345C17.5 2.26122 17.5 2.26122 17.4375 2.38345C17.491 2.38297 17.491 2.38297 17.5455 2.38248C17.7061 2.38121 17.8667 2.38041 18.0273 2.37963C18.0835 2.37912 18.1396 2.3786 18.1974 2.37808C18.2508 2.37788 18.3041 2.37768 18.3591 2.37748C18.4086 2.37716 18.458 2.37684 18.5089 2.37651C18.625 2.38345 18.625 2.38345 18.6875 2.44456C18.6875 2.84789 18.6875 3.25122 18.6875 3.66678C17.45 3.66678 16.2125 3.66678 14.9375 3.66678C14.9375 2.44456 14.9375 2.44456 15 2.20011C15 1.89761 15 1.59511 15 1.28345Z" fill="#F7A8AA"/>
<path d="M15.0625 1.22217C16.6712 1.22217 18.28 1.22217 19.9375 1.22217C19.9375 2.02883 19.9375 2.8355 19.9375 3.66661C19.525 3.66661 19.1125 3.66661 18.6875 3.66661C18.6669 3.26328 18.6463 2.85995 18.625 2.44439C18.2331 2.42422 17.8413 2.40406 17.4375 2.38328C17.4375 2.02028 17.4375 1.65728 17.4375 1.28328C17.3394 1.2884 17.2412 1.29352 17.1401 1.2988C16.4416 1.33276 15.759 1.36121 15.0625 1.28328C15.0625 1.26311 15.0625 1.24295 15.0625 1.22217Z" fill="#FF868A"/>
<path d="M11.1875 2.44458C11.6 2.44458 12.0125 2.44458 12.4375 2.44458C12.4375 3.25125 12.4375 4.05791 12.4375 4.88902C11.6125 4.88902 10.7875 4.88902 9.9375 4.88902C9.9375 4.48569 9.9375 4.08236 9.9375 3.6668C10.35 3.6668 10.7625 3.6668 11.1875 3.6668C11.1875 3.26347 11.1875 2.86014 11.1875 2.44458Z" fill="#FF868A"/>
<path d="M18.6875 3.66675C19.1 3.66675 19.5125 3.66675 19.9375 3.66675C19.9375 4.47341 19.9375 5.28008 19.9375 6.11119C19.525 6.11119 19.1125 6.11119 18.6875 6.11119C18.6875 5.30453 18.6875 4.49786 18.6875 3.66675Z" fill="#FF868A"/>
<path d="M16.1875 2.44458C17.0125 2.44458 17.8375 2.44458 18.6875 2.44458C18.6875 2.84791 18.6875 3.25125 18.6875 3.6668C17.8625 3.6668 17.0375 3.6668 16.1875 3.6668C16.1875 3.26347 16.1875 2.86014 16.1875 2.44458Z" fill="#FDEAF2"/>
<path d="M18.6875 9.77783C19.1 9.77783 19.5125 9.77783 19.9375 9.77783C19.9375 10.1812 19.9375 10.5845 19.9375 11.0001C19.525 11.0001 19.1125 11.0001 18.6875 11.0001C18.6875 10.5967 18.6875 10.1934 18.6875 9.77783Z" fill="#F28F92"/>
<path d="M9.9375 4.88892C10.35 4.88892 10.7625 4.88892 11.1875 4.88892C11.1875 5.29225 11.1875 5.69558 11.1875 6.11114C10.775 6.11114 10.3625 6.11114 9.9375 6.11114C9.9375 5.7078 9.9375 5.30447 9.9375 4.88892Z" fill="#FF868A"/>
<path d="M18.6875 3.66675C19.1 3.66675 19.5125 3.66675 19.9375 3.66675C19.9375 4.07008 19.9375 4.47341 19.9375 4.88897C19.525 4.88897 19.1125 4.88897 18.6875 4.88897C18.6875 4.48564 18.6875 4.0823 18.6875 3.66675Z" fill="#FDC2C4"/>
<path d="M17.4375 3.66675C17.85 3.66675 18.2625 3.66675 18.6875 3.66675C18.6875 4.07008 18.6875 4.47341 18.6875 4.88897C18.275 4.88897 17.8625 4.88897 17.4375 4.88897C17.4375 4.48564 17.4375 4.0823 17.4375 3.66675Z" fill="#F7A8AA"/>
<path d="M18.6875 2.44458C19.1 2.44458 19.5125 2.44458 19.9375 2.44458C19.9375 2.84791 19.9375 3.25125 19.9375 3.6668C19.525 3.6668 19.1125 3.6668 18.6875 3.6668C18.6875 3.26347 18.6875 2.86014 18.6875 2.44458Z" fill="#FF868A"/>
<path d="M16.1875 2.44458C16.6 2.44458 17.0125 2.44458 17.4375 2.44458C17.4375 2.84791 17.4375 3.25125 17.4375 3.6668C17.025 3.6668 16.6125 3.6668 16.1875 3.6668C16.1875 3.26347 16.1875 2.86014 16.1875 2.44458Z" fill="#FDC2C4"/>
<path d="M19.9375 2.44458C20.3294 2.44458 20.7212 2.44458 21.125 2.44458C21.125 4.86458 21.125 7.28458 21.125 9.77791C20.7331 9.77791 20.3413 9.77791 19.9375 9.77791C19.9375 7.35791 19.9375 4.93791 19.9375 2.44458Z" fill="#C82D4D"/>
<path d="M0 2.44458C0.391875 2.44458 0.78375 2.44458 1.1875 2.44458C1.1875 4.46125 1.1875 6.47791 1.1875 8.55569C0.795625 8.55569 0.40375 8.55569 0 8.55569C0 6.53902 0 4.52236 0 2.44458Z" fill="#C82D4D"/>
<path d="M18.6875 9.77783C19.1 9.77783 19.5125 9.77783 19.9375 9.77783C19.9375 10.5845 19.9375 11.3912 19.9375 12.2223C19.525 12.2223 19.1125 12.2223 18.6875 12.2223C18.6875 12.6256 18.6875 13.0289 18.6875 13.4445C18.275 13.4445 17.8625 13.4445 17.4375 13.4445C17.4375 13.8478 17.4375 14.2512 17.4375 14.6667C17.025 14.6667 16.6125 14.6667 16.1875 14.6667C16.1875 14.2432 16.1875 13.8197 16.1875 13.3834C16.6 13.3834 17.0125 13.3834 17.4375 13.3834C17.4375 12.9801 17.4375 12.5767 17.4375 12.1612C17.85 12.1612 18.2625 12.1612 18.6875 12.1612C18.6875 11.3747 18.6875 10.5882 18.6875 9.77783Z" fill="#C82D4D"/>
<path d="M13.6875 0C15.3375 0 16.9875 0 18.6875 0C18.6875 0.403333 18.6875 0.806667 18.6875 1.22222C17.0375 1.22222 15.3875 1.22222 13.6875 1.22222C13.6875 0.818889 13.6875 0.415556 13.6875 0Z" fill="#C82D4D"/>
<path d="M2.4375 0C4.0875 0 5.7375 0 7.4375 0C7.4375 0.403333 7.4375 0.806667 7.4375 1.22222C5.7875 1.22222 4.1375 1.22222 2.4375 1.22222C2.4375 0.818889 2.4375 0.415556 2.4375 0Z" fill="#C82D4D"/>
<path d="M8.6875 17.1111C9.925 17.1111 11.1625 17.1111 12.4375 17.1111C12.4375 17.5144 12.4375 17.9178 12.4375 18.3333C11.2 18.3333 9.9625 18.3333 8.6875 18.3333C8.6875 17.93 8.6875 17.5266 8.6875 17.1111Z" fill="#C82D4D"/>
<path d="M12.4375 15.8889C13.2625 15.8889 14.0875 15.8889 14.9375 15.8889C14.9375 16.2922 14.9375 16.6956 14.9375 17.1111C14.1125 17.1111 13.2875 17.1111 12.4375 17.1111C12.4375 16.7078 12.4375 16.3045 12.4375 15.8889Z" fill="#C82D4D"/>
<path d="M6.1875 15.8889C7.0125 15.8889 7.8375 15.8889 8.6875 15.8889C8.6875 16.2922 8.6875 16.6956 8.6875 17.1111C7.8625 17.1111 7.0375 17.1111 6.1875 17.1111C6.1875 16.7078 6.1875 16.3045 6.1875 15.8889Z" fill="#C82D4D"/>
<path d="M2.4375 11C2.85 11 3.2625 11 3.6875 11C3.6875 11.8067 3.6875 12.6133 3.6875 13.4444C3.275 13.4444 2.8625 13.4444 2.4375 13.4444C2.4375 12.6378 2.4375 11.8311 2.4375 11Z" fill="#C82D4D"/>
<path d="M1.1875 8.55566C1.6 8.55566 2.0125 8.55566 2.4375 8.55566C2.4375 9.36233 2.4375 10.169 2.4375 11.0001C2.025 11.0001 1.6125 11.0001 1.1875 11.0001C1.1875 10.1934 1.1875 9.38678 1.1875 8.55566Z" fill="#C82D4D"/>
<path d="M14.9375 14.6667C15.35 14.6667 15.7625 14.6667 16.1875 14.6667C16.1875 15.0701 16.1875 15.4734 16.1875 15.889C15.775 15.889 15.3625 15.889 14.9375 15.889C14.9375 15.4856 14.9375 15.0823 14.9375 14.6667Z" fill="#C82D4D"/>
<path d="M4.9375 14.6667C5.35 14.6667 5.7625 14.6667 6.1875 14.6667C6.1875 15.0701 6.1875 15.4734 6.1875 15.889C5.775 15.889 5.3625 15.889 4.9375 15.889C4.9375 15.4856 4.9375 15.0823 4.9375 14.6667Z" fill="#C82D4D"/>
<path d="M3.6875 13.4446C4.1 13.4446 4.5125 13.4446 4.9375 13.4446C4.9375 13.8479 4.9375 14.2512 4.9375 14.6668C4.525 14.6668 4.1125 14.6668 3.6875 14.6668C3.6875 14.2635 3.6875 13.8601 3.6875 13.4446Z" fill="#C82D4D"/>
<path d="M9.9375 3.66675C10.35 3.66675 10.7625 3.66675 11.1875 3.66675C11.1875 4.07008 11.1875 4.47341 11.1875 4.88897C10.775 4.88897 10.3625 4.88897 9.9375 4.88897C9.9375 4.48564 9.9375 4.0823 9.9375 3.66675Z" fill="#C82D4D"/>
<path d="M11.1875 2.44458C11.6 2.44458 12.0125 2.44458 12.4375 2.44458C12.4375 2.84791 12.4375 3.25125 12.4375 3.6668C12.025 3.6668 11.6125 3.6668 11.1875 3.6668C11.1875 3.26347 11.1875 2.86014 11.1875 2.44458Z" fill="#C82D4D"/>
<path d="M8.6875 2.44458C9.1 2.44458 9.5125 2.44458 9.9375 2.44458C9.9375 2.84791 9.9375 3.25125 9.9375 3.6668C9.525 3.6668 9.1125 3.6668 8.6875 3.6668C8.6875 3.26347 8.6875 2.86014 8.6875 2.44458Z" fill="#C82D4D"/>
<path d="M18.6875 1.22217C19.1 1.22217 19.5125 1.22217 19.9375 1.22217C19.9375 1.6255 19.9375 2.02883 19.9375 2.44439C19.525 2.44439 19.1125 2.44439 18.6875 2.44439C18.6875 2.04106 18.6875 1.63772 18.6875 1.22217Z" fill="#C82D4D"/>
<path d="M12.4375 1.22217C12.85 1.22217 13.2625 1.22217 13.6875 1.22217C13.6875 1.6255 13.6875 2.02883 13.6875 2.44439C13.275 2.44439 12.8625 2.44439 12.4375 2.44439C12.4375 2.04106 12.4375 1.63772 12.4375 1.22217Z" fill="#C82D4D"/>
<path d="M7.4375 1.22217C7.85 1.22217 8.2625 1.22217 8.6875 1.22217C8.6875 1.6255 8.6875 2.02883 8.6875 2.44439C8.275 2.44439 7.8625 2.44439 7.4375 2.44439C7.4375 2.04106 7.4375 1.63772 7.4375 1.22217Z" fill="#C82D4D"/>
<path d="M1.1875 1.22217C1.6 1.22217 2.0125 1.22217 2.4375 1.22217C2.4375 1.6255 2.4375 2.02883 2.4375 2.44439C2.025 2.44439 1.6125 2.44439 1.1875 2.44439C1.1875 2.04106 1.1875 1.63772 1.1875 1.22217Z" fill="#C82D4D"/>
<path d="M15.9615 6C17.2893 6 18.6172 6 19.9852 6C19.9852 6.308 19.9852 6.616 19.9852 6.93333C20.3172 6.93333 20.6491 6.93333 20.9911 6.93333C20.9911 7.24133 20.9911 7.54933 20.9911 7.86667C21.3231 7.86667 21.655 7.86667 21.997 7.86667C21.997 8.17467 21.997 8.48267 21.997 8.8C22.329 8.8 22.6609 8.8 23.003 8.8C23.003 8.492 23.003 8.184 23.003 7.86667C23.3349 7.86667 23.6669 7.86667 24.0089 7.86667C24.0089 7.55867 24.0089 7.25067 24.0089 6.93333C24.3408 6.93333 24.6728 6.93333 25.0148 6.93333C25.0148 6.62533 25.0148 6.31733 25.0148 6C26.3426 6 27.6704 6 29.0385 6C29.0385 6.308 29.0385 6.616 29.0385 6.93333C29.3704 6.93333 29.7024 6.93333 30.0444 6.93333C30.0444 7.24133 30.0444 7.54933 30.0444 7.86667C30.3597 7.86667 30.6751 7.86667 31 7.86667C31 9.71467 31 11.5627 31 13.4667C30.6846 13.4667 30.3693 13.4667 30.0444 13.4667C30.0444 14.0827 30.0444 14.6987 30.0444 15.3333C29.7124 15.3333 29.3805 15.3333 29.0385 15.3333C29.0385 15.6413 29.0385 15.9493 29.0385 16.2667C28.7065 16.2667 28.3746 16.2667 28.0325 16.2667C28.0325 16.5747 28.0325 16.8827 28.0325 17.2C27.7006 17.2 27.3686 17.2 27.0266 17.2C27.0266 17.508 27.0266 17.816 27.0266 18.1333C26.6947 18.1333 26.3627 18.1333 26.0207 18.1333C26.0207 18.4413 26.0207 18.7493 26.0207 19.0667C25.3568 19.0667 24.6929 19.0667 24.0089 19.0667C24.0089 19.3747 24.0089 19.6827 24.0089 20C23.013 20 22.0172 20 20.9911 20C20.9911 19.692 20.9911 19.384 20.9911 19.0667C20.3272 19.0667 19.6633 19.0667 18.9793 19.0667C18.9793 18.7587 18.9793 18.4507 18.9793 18.1333C18.6473 18.1333 18.3154 18.1333 17.9734 18.1333C17.9734 17.8253 17.9734 17.5173 17.9734 17.2C17.6414 17.2 17.3095 17.2 16.9675 17.2C16.9675 16.892 16.9675 16.584 16.9675 16.2667C16.6355 16.2667 16.3036 16.2667 15.9615 16.2667C15.9615 15.6507 15.9615 15.0347 15.9615 14.4C15.6296 14.4 15.2976 14.4 14.9556 14.4C14.9556 13.784 14.9556 13.168 14.9556 12.5333C14.6403 12.5333 14.3249 12.5333 14 12.5333C14 10.9933 14 9.45333 14 7.86667C14.3154 7.86667 14.6307 7.86667 14.9556 7.86667C14.9556 7.55867 14.9556 7.25067 14.9556 6.93333C15.2876 6.93333 15.6195 6.93333 15.9615 6.93333C15.9615 6.62533 15.9615 6.31733 15.9615 6Z" fill="#FF9496"/>
<path d="M26.0708 6.97998C26.7181 6.97998 27.3654 6.97998 28.0323 6.97998C28.0826 7.72665 28.0826 7.72665 28.0323 7.81998C28.0754 7.81961 28.0754 7.81961 28.1193 7.81924C28.2485 7.81827 28.3778 7.81766 28.507 7.81706C28.5522 7.81667 28.5973 7.81628 28.6438 7.81588C28.6868 7.81573 28.7298 7.81558 28.774 7.81542C28.8138 7.81518 28.8536 7.81493 28.8945 7.81468C28.988 7.81998 28.988 7.81998 29.0383 7.86665C29.0383 8.17465 29.0383 8.48265 29.0383 8.79998C28.0424 8.79998 27.0465 8.79998 26.0205 8.79998C26.0205 7.86665 26.0205 7.86665 26.0708 7.67998C26.0708 7.44898 26.0708 7.21798 26.0708 6.97998Z" fill="#F7A8AA"/>
<path d="M26.1211 6.93335C27.4157 6.93335 28.7103 6.93335 30.0442 6.93335C30.0442 7.54935 30.0442 8.16535 30.0442 8.80002C29.7122 8.80002 29.3803 8.80002 29.0383 8.80002C29.0217 8.49202 29.0051 8.18402 28.988 7.86668C28.6726 7.85128 28.3572 7.83588 28.0323 7.82002C28.0323 7.54282 28.0323 7.26562 28.0323 6.98002C27.9534 6.98393 27.8744 6.98784 27.793 6.99187C27.2309 7.0178 26.6816 7.03953 26.1211 6.98002C26.1211 6.96462 26.1211 6.94922 26.1211 6.93335Z" fill="#FF868A"/>
<path d="M23.003 7.8667C23.3349 7.8667 23.6669 7.8667 24.0089 7.8667C24.0089 8.4827 24.0089 9.0987 24.0089 9.73337C23.345 9.73337 22.6811 9.73337 21.9971 9.73337C21.9971 9.42537 21.9971 9.11737 21.9971 8.80003C22.329 8.80003 22.661 8.80003 23.003 8.80003C23.003 8.49203 23.003 8.18403 23.003 7.8667Z" fill="#FF868A"/>
<path d="M29.0381 8.80005C29.37 8.80005 29.702 8.80005 30.044 8.80005C30.044 9.41605 30.044 10.032 30.044 10.6667C29.7121 10.6667 29.3801 10.6667 29.0381 10.6667C29.0381 10.0507 29.0381 9.43472 29.0381 8.80005Z" fill="#FF868A"/>
<path d="M27.0264 7.8667C27.6903 7.8667 28.3542 7.8667 29.0382 7.8667C29.0382 8.1747 29.0382 8.4827 29.0382 8.80003C28.3743 8.80003 27.7104 8.80003 27.0264 8.80003C27.0264 8.49203 27.0264 8.18403 27.0264 7.8667Z" fill="#FDEAF2"/>
<path d="M29.0381 13.4668C29.37 13.4668 29.702 13.4668 30.044 13.4668C30.044 13.7748 30.044 14.0828 30.044 14.4001C29.7121 14.4001 29.3801 14.4001 29.0381 14.4001C29.0381 14.0921 29.0381 13.7841 29.0381 13.4668Z" fill="#F28F92"/>
<path d="M21.9971 9.7334C22.329 9.7334 22.661 9.7334 23.003 9.7334C23.003 10.0414 23.003 10.3494 23.003 10.6667C22.671 10.6667 22.3391 10.6667 21.9971 10.6667C21.9971 10.3587 21.9971 10.0507 21.9971 9.7334Z" fill="#FF868A"/>
<path d="M29.0381 8.80005C29.37 8.80005 29.702 8.80005 30.044 8.80005C30.044 9.10805 30.044 9.41605 30.044 9.73338C29.7121 9.73338 29.3801 9.73338 29.0381 9.73338C29.0381 9.42538 29.0381 9.11738 29.0381 8.80005Z" fill="#FDC2C4"/>
<path d="M28.0322 8.80005C28.3642 8.80005 28.6961 8.80005 29.0381 8.80005C29.0381 9.10805 29.0381 9.41605 29.0381 9.73338C28.7062 9.73338 28.3742 9.73338 28.0322 9.73338C28.0322 9.42538 28.0322 9.11738 28.0322 8.80005Z" fill="#F7A8AA"/>
<path d="M29.0381 7.8667C29.37 7.8667 29.702 7.8667 30.044 7.8667C30.044 8.1747 30.044 8.4827 30.044 8.80003C29.7121 8.80003 29.3801 8.80003 29.0381 8.80003C29.0381 8.49203 29.0381 8.18403 29.0381 7.8667Z" fill="#FF868A"/>
<path d="M27.0264 7.8667C27.3583 7.8667 27.6903 7.8667 28.0323 7.8667C28.0323 8.1747 28.0323 8.4827 28.0323 8.80003C27.7003 8.80003 27.3684 8.80003 27.0264 8.80003C27.0264 8.49203 27.0264 8.18403 27.0264 7.8667Z" fill="#FDC2C4"/>
<path d="M30.0439 7.8667C30.3593 7.8667 30.6747 7.8667 30.9996 7.8667C30.9996 9.7147 30.9996 11.5627 30.9996 13.4667C30.6842 13.4667 30.3689 13.4667 30.0439 13.4667C30.0439 11.6187 30.0439 9.7707 30.0439 7.8667Z" fill="#C82D4D"/>
<path d="M14 7.8667C14.3154 7.8667 14.6307 7.8667 14.9556 7.8667C14.9556 9.4067 14.9556 10.9467 14.9556 12.5334C14.6403 12.5334 14.3249 12.5334 14 12.5334C14 10.9934 14 9.45337 14 7.8667Z" fill="#C82D4D"/>
<path d="M29.0382 13.4668C29.3702 13.4668 29.7021 13.4668 30.0441 13.4668C30.0441 14.0828 30.0441 14.6988 30.0441 15.3335C29.7122 15.3335 29.3802 15.3335 29.0382 15.3335C29.0382 15.6415 29.0382 15.9495 29.0382 16.2668C28.7062 16.2668 28.3743 16.2668 28.0323 16.2668C28.0323 16.5748 28.0323 16.8828 28.0323 17.2001C27.7003 17.2001 27.3684 17.2001 27.0264 17.2001C27.0264 16.8767 27.0264 16.5533 27.0264 16.2201C27.3583 16.2201 27.6903 16.2201 28.0323 16.2201C28.0323 15.9121 28.0323 15.6041 28.0323 15.2868C28.3642 15.2868 28.6962 15.2868 29.0382 15.2868C29.0382 14.6862 29.0382 14.0856 29.0382 13.4668Z" fill="#C82D4D"/>
<path d="M25.0146 6C26.3425 6 27.6703 6 29.0383 6C29.0383 6.308 29.0383 6.616 29.0383 6.93333C27.7105 6.93333 26.3827 6.93333 25.0146 6.93333C25.0146 6.62533 25.0146 6.31733 25.0146 6Z" fill="#C82D4D"/>
<path d="M15.9619 6C17.2897 6 18.6175 6 19.9856 6C19.9856 6.308 19.9856 6.616 19.9856 6.93333C18.6578 6.93333 17.33 6.93333 15.9619 6.93333C15.9619 6.62533 15.9619 6.31733 15.9619 6Z" fill="#C82D4D"/>
<path d="M20.9912 19.0667C21.9871 19.0667 22.9829 19.0667 24.009 19.0667C24.009 19.3747 24.009 19.6827 24.009 20C23.0131 20 22.0172 20 20.9912 20C20.9912 19.692 20.9912 19.384 20.9912 19.0667Z" fill="#C82D4D"/>
<path d="M24.0088 18.1333C24.6727 18.1333 25.3366 18.1333 26.0206 18.1333C26.0206 18.4413 26.0206 18.7493 26.0206 19.0666C25.3567 19.0666 24.6928 19.0666 24.0088 19.0666C24.0088 18.7586 24.0088 18.4506 24.0088 18.1333Z" fill="#C82D4D"/>
<path d="M18.9795 18.1333C19.6434 18.1333 20.3073 18.1333 20.9913 18.1333C20.9913 18.4413 20.9913 18.7493 20.9913 19.0666C20.3274 19.0666 19.6635 19.0666 18.9795 19.0666C18.9795 18.7586 18.9795 18.4506 18.9795 18.1333Z" fill="#C82D4D"/>
<path d="M15.9619 14.3999C16.2939 14.3999 16.6258 14.3999 16.9678 14.3999C16.9678 15.0159 16.9678 15.6319 16.9678 16.2666C16.6359 16.2666 16.3039 16.2666 15.9619 16.2666C15.9619 15.6506 15.9619 15.0346 15.9619 14.3999Z" fill="#C82D4D"/>
<path d="M14.9561 12.5334C15.288 12.5334 15.62 12.5334 15.962 12.5334C15.962 13.1494 15.962 13.7654 15.962 14.4001C15.63 14.4001 15.2981 14.4001 14.9561 14.4001C14.9561 13.7841 14.9561 13.1681 14.9561 12.5334Z" fill="#C82D4D"/>
<path d="M26.0205 17.2C26.3525 17.2 26.6844 17.2 27.0264 17.2C27.0264 17.508 27.0264 17.816 27.0264 18.1333C26.6945 18.1333 26.3625 18.1333 26.0205 18.1333C26.0205 17.8253 26.0205 17.5173 26.0205 17.2Z" fill="#C82D4D"/>
<path d="M17.9736 17.2C18.3056 17.2 18.6375 17.2 18.9796 17.2C18.9796 17.508 18.9796 17.816 18.9796 18.1333C18.6476 18.1333 18.3156 18.1333 17.9736 18.1333C17.9736 17.8253 17.9736 17.5173 17.9736 17.2Z" fill="#C82D4D"/>
<path d="M16.9678 16.2668C17.2997 16.2668 17.6317 16.2668 17.9737 16.2668C17.9737 16.5748 17.9737 16.8828 17.9737 17.2002C17.6417 17.2002 17.3098 17.2002 16.9678 17.2002C16.9678 16.8922 16.9678 16.5842 16.9678 16.2668Z" fill="#C82D4D"/>
<path d="M21.9971 8.80005C22.329 8.80005 22.661 8.80005 23.003 8.80005C23.003 9.10805 23.003 9.41605 23.003 9.73338C22.671 9.73338 22.3391 9.73338 21.9971 9.73338C21.9971 9.42538 21.9971 9.11738 21.9971 8.80005Z" fill="#C82D4D"/>
<path d="M23.0029 7.8667C23.3349 7.8667 23.6668 7.8667 24.0088 7.8667C24.0088 8.1747 24.0088 8.4827 24.0088 8.80003C23.6769 8.80003 23.3449 8.80003 23.0029 8.80003C23.0029 8.49203 23.0029 8.18403 23.0029 7.8667Z" fill="#C82D4D"/>
<path d="M20.9912 7.8667C21.3232 7.8667 21.6551 7.8667 21.9971 7.8667C21.9971 8.1747 21.9971 8.4827 21.9971 8.80003C21.6652 8.80003 21.3332 8.80003 20.9912 8.80003C20.9912 8.49203 20.9912 8.18403 20.9912 7.8667Z" fill="#C82D4D"/>
<path d="M29.0381 6.93335C29.37 6.93335 29.702 6.93335 30.044 6.93335C30.044 7.24135 30.044 7.54935 30.044 7.86668C29.7121 7.86668 29.3801 7.86668 29.0381 7.86668C29.0381 7.55868 29.0381 7.25068 29.0381 6.93335Z" fill="#C82D4D"/>
<path d="M24.0088 6.93335C24.3407 6.93335 24.6727 6.93335 25.0147 6.93335C25.0147 7.24135 25.0147 7.54935 25.0147 7.86668C24.6828 7.86668 24.3508 7.86668 24.0088 7.86668C24.0088 7.55868 24.0088 7.25068 24.0088 6.93335Z" fill="#C82D4D"/>
<path d="M19.9854 6.93335C20.3173 6.93335 20.6493 6.93335 20.9913 6.93335C20.9913 7.24135 20.9913 7.54935 20.9913 7.86668C20.6593 7.86668 20.3274 7.86668 19.9854 7.86668C19.9854 7.55868 19.9854 7.25068 19.9854 6.93335Z" fill="#C82D4D"/>
<path d="M14.9561 6.93335C15.288 6.93335 15.62 6.93335 15.962 6.93335C15.962 7.24135 15.962 7.54935 15.962 7.86668C15.63 7.86668 15.2981 7.86668 14.9561 7.86668C14.9561 7.55868 14.9561 7.25068 14.9561 6.93335Z" fill="#C82D4D"/>
</svg>
