<?xml version="1.0" standalone="no"?>
<!DOCTYPE svg PUBLIC "-//W3C//DTD SVG 20010904//EN"
 "http://www.w3.org/TR/2001/REC-SVG-20010904/DTD/svg10.dtd">
<svg version="1.0" xmlns="http://www.w3.org/2000/svg"
 width="512.000000pt" height="512.000000pt" viewBox="0 0 512.000000 512.000000"
 preserveAspectRatio="xMidYMid meet">

<g transform="translate(0.000000,512.000000) scale(0.100000,-0.100000)"
fill="#000000" stroke="none">
<path d="M3340 4889 c-44 -18 -90 -59 -110 -100 -23 -45 -28 -127 -10 -174 6
-17 127 -146 271 -290 142 -143 259 -265 259 -270 0 -5 -357 -368 -794 -805
-643 -644 -796 -802 -806 -834 -41 -129 44 -263 175 -274 106 -9 62 -47 925
814 437 437 800 794 805 794 5 0 127 -117 270 -259 143 -143 273 -265 288
-270 16 -6 54 -11 85 -11 71 0 124 29 167 88 l30 44 0 712 0 713 -27 39 c-15
21 -44 50 -65 64 l-37 25 -700 2 c-447 1 -710 -2 -726 -8z"/>
<path d="M774 4469 c-204 -24 -393 -158 -485 -344 -75 -153 -70 -20 -67 -1801
l3 -1599 22 -65 c66 -192 229 -353 418 -413 l70 -22 1615 0 c1552 0 1617 1
1670 19 199 67 345 205 415 390 43 113 46 203 43 1116 l-3 856 -26 49 c-60
118 -216 149 -315 63 -74 -65 -68 10 -74 -1008 l-5 -915 -22 -41 c-27 -51 -72
-90 -121 -104 -26 -8 -507 -10 -1589 -8 l-1551 3 -43 30 c-23 17 -53 50 -66
74 l-23 44 0 1549 c0 1375 2 1553 15 1586 20 47 50 78 100 105 40 22 42 22
955 27 1018 6 943 0 1008 74 86 99 55 255 -63 315 l-49 26 -881 1 c-484 1
-912 -2 -951 -7z"/>
</g>
</svg>
