<svg xmlns="http://www.w3.org/2000/svg" version="1.0" width="6715.000000pt" height="2389.000000pt" viewBox="0 0 6715.000000 2389.000000" preserveAspectRatio="xMidYMid meet">

<g transform="translate(0.000000,2389.000000) scale(0.100000,-0.100000)" fill="#6571ff" stroke="none">
<path d="M33810 23869 c-917 -74 -1618 -461 -2023 -1119 -163 -265 -295 -645 -362 -1040 -49 -289 -57 -412 -62 -972 l-5 -528 -584 0 -584 0 0 -875 0 -875 585 0 585 0 0 -3685 0 -3685 1055 0 1055 0 0 3685 0 3685 1200 0 1200 0 0 870 0 870 -1220 0 -1220 0 0 354 c0 387 10 508 56 694 88 354 281 605 570 739 222 102 569 136 938 92 188 -22 735 -147 869 -198 l27 -11 0 885 0 884 -57 16 c-359 106 -840 191 -1208 215 -185 12 -662 11 -815 -1z" fill="#6571ff"/>
<path d="M54190 18123 c0 -2960 4 -4677 10 -4783 20 -329 67 -616 145 -885 123 -422 299 -708 604 -980 255 -228 453 -337 809 -446 330 -102 522 -139 827 -159 201 -13 375 -13 585 0 594 37 1052 157 1505 394 l120 62 3 861 2 862 -82 -38 c-187 -86 -516 -185 -768 -230 -197 -35 -313 -44 -499 -38 -154 4 -191 8 -291 35 -417 109 -643 326 -749 720 -52 194 -51 122 -51 2615 l0 2317 1215 0 1215 0 0 895 0 895 -1237 2 -1238 3 -3 1258 -2 1257 -1060 0 -1060 0 0 -4617z" fill="#6571ff"/>
<path d="M4960 20413 c-382 -22 -785 -110 -1100 -240 -231 -95 -584 -312 -837 -516 -248 -198 -555 -519 -802 -835 l-96 -124 -3 761 -2 761 -1060 0 -1060 0 0 -6000 0 -6000 1060 0 1060 0 2 2102 3 2101 84 -99 c509 -603 1044 -1024 1561 -1227 446 -175 1014 -280 1515 -280 452 1 832 66 1314 225 614 204 1354 699 1752 1173 541 643 923 1458 1074 2290 61 335 85 602 92 1025 20 1207 -161 2000 -637 2795 -185 308 -348 516 -668 852 -242 255 -424 408 -682 578 -242 159 -450 262 -785 390 -456 174 -715 236 -1100 265 -127 9 -549 11 -685 3z m180 -1848 c366 -49 786 -218 1077 -433 105 -78 188 -156 353 -334 226 -242 321 -382 485 -713 112 -227 151 -338 209 -587 74 -322 102 -617 93 -1003 -14 -595 -83 -907 -297 -1330 -95 -189 -176 -318 -314 -502 -189 -253 -373 -426 -646 -608 -281 -187 -455 -259 -810 -339 -495 -110 -1089 -76 -1485 86 -55 22 -138 55 -185 73 -118 45 -268 122 -376 193 -347 228 -702 670 -954 1188 -89 183 -155 419 -204 725 -43 265 -50 370 -49 669 1 474 51 807 164 1098 127 326 287 599 530 902 234 291 485 494 855 687 221 115 564 208 899 242 129 14 507 5 655 -14z" fill="#6571ff"/>
<path d="M49115 20380 c-537 -30 -1087 -163 -1510 -364 -457 -217 -794 -484 -1076 -852 -259 -337 -418 -776 -469 -1292 -16 -166 -14 -505 4 -642 33 -243 125 -540 235 -759 61 -119 312 -441 461 -591 115 -116 201 -183 352 -273 291 -175 525 -289 768 -376 404 -144 1093 -376 1222 -411 142 -39 358 -104 723 -215 190 -59 354 -123 475 -188 52 -27 136 -70 185 -94 136 -67 277 -166 376 -262 72 -71 95 -101 123 -161 49 -109 61 -173 60 -345 0 -163 -13 -236 -60 -347 -82 -196 -263 -374 -500 -495 -152 -78 -316 -126 -524 -155 -147 -20 -656 -17 -845 6 -790 94 -1416 353 -2333 963 -119 78 -219 143 -224 143 -7 0 -924 -1368 -934 -1394 -3 -9 51 -53 153 -124 676 -470 1374 -813 2006 -986 594 -162 1183 -252 1717 -263 1041 -20 1762 176 2451 669 222 159 411 342 557 541 100 136 145 211 242 407 172 351 244 653 257 1085 14 493 -61 841 -264 1224 -190 358 -389 571 -773 826 -440 293 -625 381 -1270 604 -272 95 -598 203 -725 240 -126 38 -331 99 -455 136 -124 36 -286 90 -360 120 -143 56 -520 220 -600 260 -166 84 -383 269 -438 373 -109 206 -102 562 16 787 53 100 205 250 346 340 188 120 460 179 831 178 523 0 1069 -132 1770 -429 205 -87 535 -252 695 -348 69 -41 128 -72 131 -68 22 23 818 1476 813 1484 -9 15 -342 231 -439 285 -413 230 -1017 468 -1495 588 -525 131 -1195 201 -1675 175z" fill="#6571ff"/>
<path d="M14235 20374 c-639 -27 -935 -66 -1445 -190 -536 -131 -874 -245 -1382 -466 l-186 -82 37 -105 c21 -58 154 -437 296 -842 l258 -735 140 58 c211 89 416 159 782 269 648 195 842 230 1410 250 749 26 1238 -45 1640 -241 146 -71 255 -143 403 -267 180 -150 306 -313 401 -514 125 -265 177 -526 188 -938 6 -228 6 -234 -13 -227 -48 19 -343 101 -479 133 -82 19 -276 62 -430 94 -154 32 -329 70 -390 83 -277 61 -583 80 -1206 73 -548 -6 -706 -20 -1144 -102 -465 -88 -764 -190 -1160 -394 -342 -176 -519 -303 -732 -525 -248 -258 -498 -649 -598 -936 -144 -416 -192 -1037 -115 -1509 49 -302 158 -651 262 -841 203 -372 542 -776 785 -934 302 -197 614 -331 1132 -486 369 -111 512 -131 979 -137 448 -7 687 11 1017 78 447 89 779 233 1244 536 262 171 464 335 689 559 l152 152 0 -569 0 -569 1000 0 1001 0 -4 2943 c-2 2215 -6 2970 -15 3057 -70 661 -183 1088 -404 1532 -525 1051 -1520 1636 -3018 1773 -166 16 -885 28 -1095 19z m755 -5014 c419 -22 747 -75 1245 -201 163 -42 442 -130 528 -168 l47 -20 0 -276 c0 -495 -50 -746 -216 -1077 -186 -372 -377 -561 -823 -816 -209 -120 -671 -282 -907 -317 -147 -22 -476 -34 -657 -24 -360 20 -711 117 -989 275 -367 207 -554 477 -614 886 -20 141 -15 432 11 548 50 224 144 411 299 591 381 444 1094 650 2076 599z" fill="#6571ff"/>
<path d="M39870 20370 c-527 -24 -840 -67 -1295 -176 -564 -135 -939 -262 -1456 -489 l-155 -69 37 -106 c20 -58 153 -436 295 -841 l259 -737 55 25 c382 172 1265 441 1650 502 195 31 301 40 638 52 648 22 1087 -28 1457 -166 342 -127 668 -374 854 -645 205 -298 296 -636 308 -1139 6 -229 5 -244 -11 -238 -129 50 -501 143 -881 222 -148 30 -317 67 -375 80 -113 26 -253 48 -420 66 -159 16 -1056 24 -1241 10 -607 -46 -1162 -165 -1578 -340 -280 -118 -652 -326 -808 -452 -360 -290 -719 -798 -853 -1209 -43 -130 -82 -307 -106 -480 -22 -158 -31 -663 -14 -813 44 -409 170 -819 335 -1096 216 -360 491 -680 710 -828 313 -210 590 -331 1140 -497 382 -116 518 -136 984 -143 542 -9 878 27 1266 133 264 73 459 157 750 324 376 217 643 418 938 710 l157 156 0 -568 0 -568 1000 0 1000 0 0 2858 c0 2851 -2 2986 -36 3302 -139 1301 -744 2234 -1769 2730 -460 222 -978 354 -1635 416 -196 18 -921 27 -1200 14z m855 -5010 c426 -22 723 -69 1230 -196 175 -44 451 -131 548 -173 l47 -20 0 -275 c0 -298 -9 -424 -41 -586 -69 -345 -263 -721 -490 -949 -188 -188 -586 -429 -844 -511 -55 -18 -148 -49 -207 -71 -220 -79 -369 -106 -668 -118 -239 -10 -457 0 -625 29 -415 71 -779 237 -1005 459 -232 228 -340 523 -340 929 0 535 220 913 688 1181 413 236 991 338 1707 301z" fill="#6571ff"/>
<path d="M60962 20193 c14 -16 879 -1040 1923 -2278 1044 -1237 1918 -2273 1943 -2302 l44 -52 -1947 -2313 -1946 -2313 1133 -3 1133 -2 26 27 c78 81 3863 4590 3863 4603 1 8 -881 1060 -1959 2337 l-1960 2323 -1139 0 -1140 0 26 -27z" fill="#6571ff"/>
<path d="M29263 20180 c-9 -25 -9 -30 3 -30 9 0 14 11 14 30 0 17 -1 30 -3 30 -1 0 -8 -13 -14 -30z" fill="#6571ff"/>
<path d="M19820 20098 c104 -238 3824 -9109 3827 -9128 5 -29 -72 -207 -148 -344 -91 -162 -177 -276 -298 -396 -135 -134 -214 -184 -385 -241 -188 -64 -298 -83 -481 -83 -179 0 -295 17 -460 66 -55 16 -155 45 -222 63 -183 49 -365 122 -471 189 -24 15 -46 25 -48 23 -8 -8 -705 -1560 -702 -1562 11 -10 279 -139 398 -192 323 -144 763 -265 1131 -312 452 -58 845 -52 1209 19 269 53 389 89 550 166 343 166 579 331 825 578 317 319 486 575 791 1201 107 221 232 497 287 635 58 146 3617 9352 3617 9356 0 2 -485 4 -1078 4 l-1078 0 -1199 -3411 c-805 -2288 -1202 -3407 -1208 -3397 -5 7 -600 1541 -1322 3408 l-1313 3395 -1120 3 -1121 2 19 -42z" fill="#6571ff"/>
<path d="M24720 4570 l0 -2800 335 0 335 0 0 251 c0 138 4 249 9 247 4 -1 37 -38 72 -82 405 -506 1284 -658 1954 -337 473 226 802 634 934 1159 86 343 78 782 -19 1111 -90 301 -221 526 -437 747 -243 249 -558 412 -928 480 -143 26 -523 27 -645 1 -216 -46 -445 -139 -606 -247 -93 -63 -229 -192 -281 -267 -20 -29 -40 -53 -45 -53 -4 0 -8 583 -8 1295 l0 1295 -335 0 -335 0 0 -2800z m2144 156 c135 -35 318 -127 424 -211 228 -183 369 -450 413 -782 15 -112 6 -403 -16 -497 -63 -281 -203 -523 -383 -666 -94 -74 -222 -151 -299 -180 -310 -116 -721 -101 -993 35 -408 204 -633 599 -633 1110 0 368 117 682 337 901 124 123 268 211 438 268 136 46 215 56 423 52 166 -3 202 -7 289 -30z" fill="#6571ff"/>
<path d="M41480 4628 c0 -1112 4 -1900 10 -1970 46 -553 309 -863 800 -943 111 -17 338 -20 478 -4 89 9 208 34 290 60 l32 11 0 290 c0 262 -2 290 -16 284 -73 -28 -234 -59 -329 -63 -198 -10 -328 29 -426 127 -59 59 -91 126 -116 242 -17 77 -18 160 -18 1118 l0 1035 453 3 452 2 0 270 0 270 -450 0 -450 0 0 560 0 560 -355 0 -355 0 0 -1852z" fill="#6571ff"/>
<path d="M55680 4110 l0 -2360 355 0 355 0 2 890 3 891 750 -890 750 -891 438 0 c324 0 436 3 431 11 -4 7 -338 406 -742 887 -404 482 -735 881 -736 888 -1 7 332 409 739 895 407 485 746 891 753 901 13 17 -2 18 -430 17 l-443 0 -755 -902 -755 -902 -3 1463 -2 1462 -355 0 -355 0 0 -2360z" fill="#6571ff"/>
<path d="M39130 5499 c-466 -52 -918 -280 -1202 -605 -243 -278 -404 -655 -449 -1053 -15 -136 -7 -487 15 -601 39 -207 84 -347 172 -530 143 -297 321 -505 583 -681 400 -269 915 -377 1451 -303 346 47 654 178 905 384 104 86 315 309 315 334 0 7 -491 399 -494 394 -167 -231 -405 -414 -633 -487 -122 -39 -206 -52 -363 -58 -118 -4 -177 -1 -246 11 -382 66 -714 305 -876 631 -66 131 -108 288 -108 401 l0 54 1434 0 1433 0 7 203 c9 262 -6 413 -60 630 -80 319 -222 588 -420 796 -122 128 -237 215 -386 292 -312 159 -713 229 -1078 188z m485 -603 c329 -86 565 -303 669 -616 33 -99 54 -208 58 -300 l3 -75 -1084 -3 -1084 -2 7 69 c31 341 296 693 639 851 193 88 307 111 532 106 132 -4 178 -9 260 -30z" fill="#6571ff"/>
<path d="M35491 5444 c-100 -17 -293 -80 -382 -125 -178 -89 -439 -319 -539 -474 l-45 -69 -3 292 -2 292 -335 0 -335 0 0 -1800 0 -1800 355 0 355 0 0 983 c0 585 4 1026 10 1092 30 327 124 553 309 748 125 131 268 214 439 254 113 26 347 24 457 -6 137 -36 219 -83 316 -180 75 -74 93 -100 137 -191 55 -114 82 -206 109 -370 15 -93 17 -232 20 -1217 l4 -1113 360 0 360 0 -4 1233 c-4 1216 -4 1233 -25 1346 -90 468 -328 805 -697 987 -192 94 -386 135 -636 133 -79 -1 -182 -7 -228 -15z" fill="#6571ff"/>
<path d="M50680 5445 c-457 -63 -858 -259 -1151 -562 -199 -205 -332 -428 -425 -709 -106 -326 -118 -753 -29 -1104 194 -772 802 -1299 1615 -1399 123 -16 437 -13 559 4 661 94 1176 455 1456 1020 123 249 179 462 193 731 20 366 -34 674 -167 960 -147 314 -406 606 -696 784 -229 141 -550 248 -837 279 -130 15 -400 12 -518 -4z m430 -596 c188 -23 350 -84 516 -194 252 -168 434 -453 509 -795 25 -114 31 -399 11 -529 -29 -186 -116 -413 -223 -575 -93 -141 -277 -299 -448 -384 -242 -120 -603 -147 -884 -66 -352 102 -611 345 -757 708 -84 208 -109 357 -101 601 6 170 19 249 69 405 146 456 513 771 968 829 95 12 244 12 340 0z" fill="#6571ff"/>
<path d="M54970 5454 c-179 -20 -298 -53 -425 -116 -245 -123 -455 -314 -568 -518 l-42 -75 -3 308 -2 307 -335 0 -335 0 0 -1800 0 -1800 360 0 359 0 4 1058 3 1057 26 115 c32 141 50 196 91 280 134 271 374 465 652 526 103 23 376 24 483 2 l72 -15 0 327 c0 303 -1 328 -17 335 -20 8 -270 15 -323 9z" fill="#6571ff"/>
<path d="M43392 5342 c1 -5 273 -815 603 -1801 l600 -1791 370 2 370 3 441 1350 c280 854 447 1350 455 1350 8 0 177 -499 458 -1352 l445 -1353 372 0 373 0 91 278 c106 320 1090 3291 1098 3310 3 10 -73 12 -374 10 l-378 -3 -407 -1378 c-223 -757 -408 -1380 -411 -1383 -3 -3 -11 10 -17 28 -87 277 -751 2361 -802 2521 l-70 217 -377 -2 -377 -3 -430 -1377 c-236 -757 -432 -1379 -436 -1382 -3 -3 -190 617 -416 1377 l-410 1382 -387 3 c-216 1 -386 -2 -384 -6z" fill="#6571ff"/>
<path d="M28473 5268 c3 -7 329 -798 726 -1756 397 -959 721 -1747 721 -1752 0 -19 -265 -693 -306 -778 -36 -74 -62 -111 -124 -176 -90 -94 -146 -128 -254 -156 -163 -41 -344 -33 -520 25 -43 14 -81 23 -84 21 -2 -3 -22 -136 -44 -297 -33 -242 -38 -293 -27 -300 26 -17 113 -40 234 -62 158 -29 515 -32 635 -5 372 82 597 290 801 738 48 104 1769 4488 1769 4505 0 3 -159 5 -354 5 -274 0 -355 -3 -359 -12 -2 -7 -224 -618 -492 -1358 -268 -740 -493 -1351 -501 -1359 -11 -13 -14 -12 -21 5 -4 10 -240 627 -524 1369 l-516 1350 -383 3 c-304 2 -381 0 -377 -10z" fill="#6571ff"/>
</g>
</svg>