<svg width="52" height="56" viewBox="0 0 52 56" fill="none" xmlns="http://www.w3.org/2000/svg">
<g clip-path="url(#clip0_8189_951)">
<path d="M1.18048 42.6394C1.1799 25.1394 13.6149 14.0536 26.0349 14.0537C39.6174 14.0537 50.9195 25.1394 50.9195 42.6394C50.9195 64.806 32.7882 50.6596 26.0349 50.806C19.2817 50.9525 1.1812 64.806 1.18048 42.6394Z" fill="#6549C2" stroke="#6549C2"/>
<path d="M40.4895 11.9522C39.9751 14.8615 41.4509 17.466 43.7807 17.7687C46.1105 18.0713 48.415 15.9567 48.9252 13.0454C49.4353 10.1342 47.9616 7.53612 45.6318 7.23346C43.302 6.93081 40.9975 9.04547 40.4895 11.9522Z" fill="#6549C2" stroke="#6549C2" stroke-width="0.5"/>
<path d="M28.6639 6.97503C28.6593 10.2353 30.6724 12.7145 33.1547 12.5127C35.6371 12.3108 37.6518 9.50279 37.6517 6.2414C37.6516 2.98002 35.6419 0.507287 33.1595 0.709131C30.6771 0.910975 28.6624 3.719 28.6639 6.97503Z" fill="#6549C2" stroke="#6549C2" stroke-width="0.5"/>
<path d="M4.51003 13.8516C5.66166 16.5547 8.32504 17.8599 10.454 16.7691C12.5829 15.6783 13.3734 12.6021 12.2172 9.89984C11.0609 7.19759 8.40281 5.89647 6.27386 6.98728C4.14491 8.07808 3.35444 11.1543 4.51003 13.8516Z" fill="#6549C2" stroke="#6549C2" stroke-width="0.5"/>
<path d="M15.8819 8.58639C17.0325 11.6227 19.7845 13.1707 22.0235 12.0462C24.2626 10.9216 25.143 7.54782 23.9876 4.51225C22.8321 1.47669 20.0856 -0.0665389 17.8466 1.05799C15.6075 2.18252 14.7271 5.55633 15.8819 8.58639Z" fill="#6549C2" stroke="#6549C2" stroke-width="0.5"/>
</g>
<defs>
<clipPath id="clip0_8189_951">
<rect width="52" height="56" fill="white"/>
</clipPath>
</defs>
</svg>
