<svg xmlns="http://www.w3.org/2000/svg" width="50" height="46" viewBox="0 0 50 46" fill="none">
<g clip-path="url(#clip0_8386_944)">
<path d="M35.7178 0.5C43.3371 0.500204 49.5 6.61368 49.5 14.1523C49.4999 23.4591 43.3864 31.2946 37.167 36.8477C34.0672 39.6153 30.9648 41.794 28.6367 43.2812C27.4734 44.0244 26.5049 44.5943 25.8281 44.9775C25.4897 45.1691 25.224 45.3144 25.0439 45.4111C25.0288 45.4192 25.0139 45.4262 25 45.4336C24.9861 45.4262 24.9712 45.4192 24.9561 45.4111C24.776 45.3144 24.5103 45.1691 24.1719 44.9775C23.4951 44.5943 22.5266 44.0244 21.3633 43.2812C19.0352 41.794 15.9328 39.6153 12.833 36.8477C6.61358 31.2946 0.500063 23.4591 0.5 14.1523C0.5 6.73078 6.47242 0.681277 13.9258 0.503906L14.2822 0.5C18.4228 0.5 22.094 2.3379 24.625 5.20996L24.999 5.63477L25.375 5.20996C27.9067 2.34764 31.5781 0.5 35.7178 0.5Z" fill="#FFD4D5" stroke="#C82D4D"/>
</g>
<defs>
<clipPath id="clip0_8386_944">
<rect width="50" height="46" fill="white"/>
</clipPath>
</defs>
</svg>
