<svg xmlns="http://www.w3.org/2000/svg" width="34" height="25" viewBox="0 0 34 25" fill="none">
<path d="M18.9909 25V23.4258C21.0883 22.3839 22.9501 20.9282 24.4626 19.1477C25.9751 17.3671 27.1065 15.299 27.7879 13.0696C26.7986 13.7929 25.6168 14.2107 24.39 14.2709C23.5815 14.2677 22.7847 14.0792 22.0615 13.7199C21.3384 13.3607 20.7085 12.8404 20.2208 12.1997C19.0765 10.8445 18.4688 9.12134 18.5114 7.35294C18.4923 6.36367 18.6807 5.3813 19.0648 4.46839C19.4488 3.55547 20.02 2.73203 20.7419 2.05053C21.4717 1.36109 22.3324 0.822889 23.2736 0.467283C24.2149 0.111679 25.218 -0.0542145 26.2245 -0.0207176C27.2862 -0.0314255 28.3353 0.209064 29.285 0.680868C30.2347 1.15267 31.0577 1.84225 31.6861 2.69263C33.1494 4.65025 33.8859 7.05057 33.7708 9.48633C33.7656 11.418 33.372 13.3292 32.6131 15.1077C31.8542 16.8861 30.7452 18.4959 29.3514 19.8426C26.6172 22.7207 22.948 24.5473 18.9909 25ZM0.229382 25V23.4258C2.32684 22.3839 4.1886 20.9282 5.70109 19.1477C7.21357 17.3671 8.34503 15.299 9.02642 13.0696C8.05586 13.763 6.90561 14.1656 5.7119 14.2295C4.90341 14.2263 4.10656 14.0377 3.38342 13.6785C2.66027 13.3192 2.03034 12.799 1.54268 12.1582C0.353756 10.7008 -0.250755 8.85804 -0.154549 6.98443C-0.0583382 5.11082 0.731796 3.33873 2.06383 2.00911C2.78912 1.31933 3.64599 0.780722 4.58398 0.425005C5.52197 0.0692883 6.52212 -0.0963497 7.52552 -0.0621433C8.58726 -0.0728531 9.63631 0.167639 10.586 0.639442C11.5357 1.11125 12.3588 1.80083 12.9872 2.6512C14.4427 4.61268 15.1784 7.01022 15.0718 9.4449C15.0721 11.3737 14.685 13.2831 13.9333 15.0614C13.1816 16.8396 12.0804 18.451 10.6941 19.8012C7.96629 22.6946 4.29636 24.5362 0.333603 25H0.229382Z" fill="#808080"/>
</svg>
