<svg xmlns="http://www.w3.org/2000/svg" width="34" height="25" viewBox="0 0 34 25" fill="none">
<path d="M15.0091 0V1.57416C12.9117 2.6161 11.0499 4.07176 9.53742 5.85231C8.02494 7.63287 6.89348 9.70097 6.21208 11.9304C7.20141 11.2071 8.38319 10.7893 9.60999 10.7291C10.4185 10.7323 11.2153 10.9208 11.9385 11.2801C12.6616 11.6393 13.2915 12.1596 13.7792 12.8003C14.9235 14.1555 15.5312 15.8787 15.4886 17.6471C15.5077 18.6363 15.3193 19.6187 14.9352 20.5316C14.5512 21.4445 13.98 22.268 13.2581 22.9495C12.5283 23.6389 11.6676 24.1771 10.7264 24.5327C9.78509 24.8883 8.78199 25.0542 7.77554 25.0207C6.7138 25.0314 5.66474 24.7909 4.71504 24.3191C3.76534 23.8473 2.94227 23.1577 2.31385 22.3074C0.850628 20.3497 0.114103 17.9494 0.229243 15.5137C0.234395 13.582 0.627996 11.6708 1.38692 9.89234C2.14584 8.1139 3.25479 6.50408 4.64862 5.15742C7.38279 2.27925 11.052 0.452746 15.0091 0ZM33.7706 0V1.57416C31.6732 2.6161 29.8114 4.07176 28.2989 5.85231C26.7864 7.63287 25.655 9.70097 24.9736 11.9304C25.9441 11.237 27.0944 10.8344 28.2881 10.7705C29.0966 10.7737 29.8934 10.9623 30.6166 11.3215C31.3397 11.6808 31.9697 12.201 32.4573 12.8418C33.6462 14.2992 34.2508 16.142 34.1545 18.0156C34.0583 19.8892 33.2682 21.6613 31.9362 22.9909C31.2109 23.6807 30.354 24.2193 29.416 24.575C28.478 24.9307 27.4779 25.0963 26.4745 25.0621C25.4127 25.0729 24.3637 24.8324 23.414 24.3606C22.4643 23.8888 21.6412 23.1992 21.0128 22.3488C19.5573 20.3873 18.8216 17.9898 18.9282 15.5551C18.9279 13.6263 19.315 11.7169 20.0667 9.93864C20.8184 8.16036 21.9196 6.54897 23.3059 5.19884C26.0337 2.3054 29.7036 0.463849 33.6664 0H33.7706Z" fill="#808080"/>
</svg>
