<svg xmlns="http://www.w3.org/2000/svg" width="65" height="54" viewBox="0 0 65 54" fill="none">
<path d="M45.4608 50.0262C48.7298 47.3769 51.236 44.507 52.9795 41.4162C54.7229 38.3254 56.0305 35.2347 56.9022 32.1439C56.2484 32.3647 55.1588 32.4751 53.6332 32.4751C49.0567 32.0335 45.2428 30.157 42.1918 26.8455C39.1407 23.7547 37.7242 20.0016 37.9421 15.5863C38.378 11.1709 40.2304 7.41782 43.4994 4.32706C46.5504 1.2363 50.2553 -0.198696 54.6139 0.0220757C58.9726 0.242844 62.6775 2.00899 65.7285 5.32053C68.7796 8.63205 70.1961 12.4955 69.9782 16.9109V17.5732C69.9782 24.1962 68.8885 29.8258 66.7092 34.462C64.312 39.0981 61.8057 42.8512 59.1905 45.7212C56.5753 48.5912 54.1781 50.6885 51.9988 52.0131C49.8194 53.3377 48.6208 54 48.4029 54L45.4608 50.0262ZM7.54047 50.0262C10.8095 47.3769 13.3157 44.507 15.0592 41.4162C16.8026 38.3254 18.1102 35.2347 18.9819 32.1439C18.1102 32.3647 16.9116 32.4751 15.3861 32.4751C11.0274 32.0335 7.32254 30.157 4.27148 26.8455C1.22043 23.7547 -0.196136 20.0016 0.0217972 15.5863C0.239723 11.1709 1.98318 7.41782 5.25217 4.32706C8.52116 1.2363 12.335 -0.198696 16.6936 0.0220757C21.0523 0.242844 24.7572 2.00899 27.8082 5.32053C30.8593 8.63205 32.2758 12.4955 32.0579 16.9109V17.5732C32.0579 24.1962 30.9682 29.8258 28.7889 34.462C26.3917 39.0981 23.8854 42.8512 21.2702 45.7212C18.655 48.5912 16.2578 50.6885 14.0785 52.0131C11.6812 53.3377 10.4826 54 10.4826 54L7.54047 50.0262Z" fill="#51553a"/>
</svg>