<svg width="28" height="26" viewBox="0 0 28 26" fill="none" xmlns="http://www.w3.org/2000/svg">
<path d="M4.94391 0C4.96626 0 4.9886 0 5.01163 0C5.01983 0.0332542 5.02804 0.0665084 5.03649 0.10077C5.06679 0.223294 5.09765 0.345673 5.12854 0.468049C5.14509 0.534503 5.16093 0.601134 5.17668 0.667785C5.36687 1.44057 5.72152 2.17664 6.19661 2.81362C6.22302 2.84972 6.24942 2.88581 6.27663 2.923C6.48026 3.1976 6.70504 3.4485 6.94146 3.695C6.95796 3.71244 6.97446 3.72988 6.99145 3.74785C7.6793 4.47316 8.54732 5.03229 9.44686 5.45775C9.4731 5.47016 9.49934 5.48258 9.52638 5.49537C9.9075 5.67426 10.2928 5.83257 10.6897 5.97272C10.7666 5.9999 10.8433 6.02751 10.92 6.05522C11.2054 6.15789 11.4922 6.25263 11.783 6.33912C11.8279 6.35258 11.8729 6.36604 11.9179 6.37951C11.9426 6.38692 11.9673 6.39433 11.9928 6.40197C12.0781 6.42755 12.1633 6.45326 12.2485 6.47896C12.3625 6.51332 12.4766 6.54742 12.5908 6.58105C13.1767 6.75367 13.7563 6.93647 14.3286 7.15058C14.3535 7.1599 14.3785 7.16922 14.4042 7.17882C14.6624 7.2757 14.9181 7.37589 15.1686 7.49169C15.1765 7.4507 15.1843 7.40972 15.1923 7.36748C15.2411 7.14883 15.3198 6.94227 15.3993 6.7332C15.4074 6.71191 15.4155 6.69063 15.4238 6.6687C15.8977 5.42799 16.5606 4.26043 17.4709 3.28821C17.4865 3.27147 17.502 3.25474 17.5181 3.23749C18.3483 2.35185 19.5189 1.64577 20.7554 1.58854C21.2786 1.57276 21.7734 1.58539 22.2786 1.72885C22.3107 1.73795 22.3428 1.74705 22.3759 1.75643C23.0453 1.95209 23.6408 2.22516 24.1745 2.67803C24.2022 2.70062 24.2299 2.72321 24.2584 2.74649C24.4607 2.91742 24.6227 3.11266 24.784 3.32211C24.798 3.33969 24.812 3.35726 24.8265 3.37537C25.1536 3.78521 25.3966 4.24381 25.6304 4.71197C25.7262 4.73888 25.8211 4.76215 25.9182 4.78401C26.4918 4.92079 27.0686 5.0842 27.5941 5.35605C27.671 5.39419 27.7478 5.43233 27.8247 5.47046C27.8833 5.50005 27.9419 5.52969 28.0004 5.55945C28.0004 5.60419 28.0004 5.64894 28.0004 5.69504C27.9286 5.76547 27.8597 5.82497 27.7803 5.88572C27.7573 5.90362 27.7342 5.92151 27.7105 5.93994C27.3433 6.22052 26.9612 6.44068 26.5435 6.63773C26.5076 6.65476 26.4718 6.67179 26.4348 6.68933C26.3473 6.7309 26.2597 6.77236 26.1721 6.81371C26.172 6.84914 26.172 6.84914 26.1719 6.88529C26.1659 9.10929 26.1659 9.10929 25.9689 10.1358C25.9629 10.1689 25.9568 10.202 25.9505 10.2361C25.9212 10.3941 25.8881 10.5507 25.8506 10.707C25.8323 10.785 25.8158 10.8634 25.7994 10.9418C25.6195 11.7789 25.3004 12.5762 24.9532 13.3562C24.9413 13.3833 24.9294 13.4103 24.9171 13.4382C24.4577 14.4719 23.848 15.4444 23.1588 16.3393C23.1447 16.3578 23.1306 16.3762 23.116 16.3952C22.6358 17.0202 22.1083 17.5965 21.5528 18.1551C21.5279 18.1801 21.5031 18.2051 21.4776 18.2308C21.3212 18.3869 21.1598 18.5347 20.992 18.6784C20.9578 18.7081 20.9237 18.7379 20.8895 18.7676C20.6164 19.0018 20.3345 19.2227 20.0469 19.4388C20.0017 19.4729 19.9566 19.507 19.9115 19.5412C19.5626 19.8065 19.1988 20.0428 18.8252 20.2716C18.8021 20.2859 18.779 20.3002 18.7552 20.3149C17.6111 21.0193 16.3142 21.6626 14.9994 21.9666C14.9658 21.9744 14.9322 21.9823 14.8976 21.9904C14.6056 22.0574 14.3121 22.1156 14.0175 22.17C13.9839 22.1763 13.9839 22.1763 13.9495 22.1828C12.5158 22.4508 10.9586 22.4717 9.54843 22.0683C9.48357 22.0533 9.41868 22.0385 9.35375 22.0238C9.05084 21.9488 8.75814 21.8354 8.46501 21.7293C8.45587 21.7593 8.44673 21.7892 8.43731 21.8201C8.39977 21.9257 8.3566 22.0119 8.2989 22.1076C8.27947 22.1399 8.26003 22.1722 8.24 22.2054C8.20893 22.2561 8.20893 22.2561 8.17723 22.3077C8.15595 22.3425 8.13467 22.3773 8.11274 22.4132C7.95129 22.6741 7.77927 22.9161 7.58474 23.1531C7.56274 23.1815 7.54075 23.21 7.51808 23.2393C7.37164 23.4283 7.2138 23.6043 7.05019 23.7784C6.97516 23.8584 6.90354 23.9379 6.83526 24.0238C6.77782 24.0952 6.72143 24.1515 6.65156 24.2103C6.5729 24.2772 6.49602 24.3446 6.42118 24.4158C5.8794 24.9302 5.17207 25.4171 4.43606 25.5938C4.40254 25.5826 4.36903 25.5714 4.33449 25.5599C4.34418 25.5428 4.35386 25.5256 4.36384 25.508C4.73865 24.8378 5.01979 24.156 5.1132 23.3904C5.08325 23.3911 5.05331 23.3918 5.02246 23.3925C3.92541 23.415 2.80766 23.3279 1.93066 22.5768C1.93066 22.5544 1.93066 22.532 1.93066 22.509C1.96996 22.5026 1.96996 22.5026 2.01005 22.4961C2.54262 22.409 3.06943 22.316 3.58964 22.17C3.61569 22.1628 3.64174 22.1556 3.66858 22.1482C5.38937 21.6689 7.10135 20.9031 8.46501 19.7293C8.50157 19.6988 8.53816 19.6685 8.57478 19.6381C9.00633 19.2781 9.40948 18.8884 9.75157 18.4411C9.78947 18.3927 9.78947 18.3927 9.82815 18.3432C10.3493 17.6655 10.805 16.8256 10.9592 15.9777C11.0093 15.8521 11.0526 15.8193 11.1735 15.7631C11.1965 15.7533 11.2196 15.7435 11.2434 15.7334C11.2934 15.7102 11.3433 15.6869 11.3932 15.6636C11.4188 15.652 11.4444 15.6403 11.4708 15.6283C11.966 15.3996 12.4267 15.106 12.8908 14.8213C13.1737 14.648 13.4599 14.4801 13.7459 14.3119C13.8254 14.265 13.9046 14.2176 13.9837 14.1698C13.9432 14.1747 13.9027 14.1796 13.8609 14.1846C13.8003 14.1911 13.7396 14.1975 13.679 14.2037C13.6332 14.2086 13.6332 14.2086 13.5865 14.2135C11.6034 14.3897 9.77873 13.7917 8.24876 12.5214C8.12287 12.4141 8.0015 12.3021 7.88099 12.1888C7.79713 12.1106 7.71162 12.0351 7.62494 11.96C7.50996 11.8581 7.4084 11.7509 7.30939 11.6335C7.23627 11.548 7.1598 11.4661 7.08324 11.3837C6.89876 11.1806 6.73151 10.9668 6.56904 10.746C6.55342 10.725 6.5378 10.7039 6.52171 10.6822C6.22499 10.2803 5.96949 9.85799 5.72262 9.42394C5.70954 9.40134 5.69645 9.37873 5.68298 9.35545C5.00795 8.18585 4.64708 6.84999 4.43606 5.52555C4.43042 5.49105 4.42478 5.45656 4.41897 5.42102C4.24511 4.30573 4.23171 3.04394 4.43606 1.93225C4.44223 1.8981 4.4484 1.86396 4.45476 1.82878C4.57019 1.20649 4.71742 0.591554 4.94391 0Z" fill="#C82D4D"/>
<path d="M22.5497 2.64419C22.5718 2.6524 22.594 2.6606 22.6168 2.66906C23.2888 2.92408 23.8415 3.36191 24.2764 3.93236C24.2961 3.95757 24.3158 3.98279 24.3362 4.00876C25.1397 5.08967 25.3671 6.47607 25.3642 7.79092C25.364 7.88939 25.3642 7.98785 25.3644 8.08632C25.3646 8.56224 25.3584 9.03763 25.2836 9.50875C25.2772 9.55044 25.2772 9.55044 25.2706 9.59297C25.2121 9.95744 25.1349 10.318 25.0551 10.6783C25.0491 10.7064 25.0431 10.7345 25.0369 10.7634C24.8566 11.6014 24.5306 12.4098 24.1748 13.1868C24.1521 13.2375 24.1293 13.2882 24.1066 13.3389C23.6127 14.4278 22.9428 15.4247 22.1773 16.3394C22.1519 16.3698 22.1519 16.3698 22.1261 16.4008C21.6555 16.9641 21.1538 17.5323 20.5918 18.006C20.5313 18.0573 20.4721 18.1094 20.413 18.1623C19.3691 19.0922 18.1663 19.8695 16.8885 20.4327C16.7853 20.479 16.6832 20.5276 16.581 20.576C16.3519 20.6821 16.1181 20.7688 15.8799 20.8522C15.8404 20.8663 15.8008 20.8805 15.7601 20.895C15.4973 20.988 15.2328 21.0732 14.9658 21.1531C14.9269 21.1648 14.9269 21.1648 14.8873 21.1768C13.9375 21.4602 12.987 21.6023 11.997 21.6044C11.9677 21.6045 11.9384 21.6046 11.9082 21.6047C11.8241 21.6049 11.74 21.6046 11.6559 21.604C11.6182 21.604 11.6182 21.604 11.5797 21.604C11.432 21.6021 11.3112 21.5803 11.1738 21.526C11.2704 21.4615 11.3137 21.4453 11.4235 21.4252C11.4536 21.4194 11.4837 21.4135 11.5147 21.4075C11.5639 21.398 11.5639 21.398 11.614 21.3883C12.321 21.2419 12.9984 20.9978 13.6454 20.6785C13.6739 20.6646 13.7024 20.6507 13.7317 20.6364C14.3828 20.3169 14.9838 19.9219 15.5413 19.4581C15.5604 19.4425 15.5794 19.4269 15.599 19.4108C16.4357 18.7226 17.1051 17.903 17.6743 16.9835C17.6875 16.9626 17.7006 16.9416 17.7142 16.9201C17.9486 16.5449 18.1147 16.1369 18.2837 15.7292C18.2958 15.7006 18.3079 15.672 18.3203 15.6425C18.6681 14.8008 18.7699 13.8964 18.7704 12.994C18.7705 12.9636 18.7706 12.9332 18.7706 12.9019C18.7703 11.3914 18.3071 9.93277 17.2342 8.84772C16.9064 8.5281 16.5385 8.27502 16.1508 8.03414C16.0979 8.00095 16.045 7.96776 15.9921 7.93457C15.9366 7.89996 15.9366 7.89996 15.8799 7.86465C15.899 7.69415 15.9369 7.54894 15.9991 7.38927C16.0077 7.36706 16.0163 7.34486 16.0252 7.32199C16.0533 7.24991 16.0819 7.17802 16.1106 7.10616C16.1203 7.08145 16.1301 7.05674 16.1402 7.03128C16.6026 5.86627 17.1796 4.74735 18.0467 3.83066C18.0622 3.81389 18.0777 3.79712 18.0936 3.77985C19.2404 2.54126 20.9518 2.04442 22.5497 2.64419Z" fill="#FEFEFE"/>
<path d="M0.000346593 8.50879C0.121187 8.60575 0.224208 8.69416 0.315637 8.82024C0.426822 8.96818 0.546964 9.10483 0.671794 9.24133C0.734118 9.31014 0.793712 9.3803 0.853113 9.45161C1.65443 10.3667 2.73847 10.9267 3.90868 11.1953C3.94469 11.2036 3.94469 11.2036 3.98141 11.2121C4.31239 11.2844 4.64152 11.2947 4.9794 11.2949C5.02047 11.2952 5.06153 11.2956 5.10384 11.2959C5.31335 11.2959 5.5158 11.2876 5.72333 11.2578C6.25925 11.1818 6.25925 11.1818 6.3958 11.2553C6.50545 11.3529 6.57114 11.4726 6.63714 11.6022C6.68825 11.6939 6.75699 11.7655 6.82883 11.8415C6.91864 11.9391 7.00711 12.0373 7.09333 12.1381C8.18724 13.3927 9.77715 14.2424 11.372 14.6551C11.4188 14.6674 11.4655 14.6797 11.5123 14.692C11.6249 14.7216 11.7375 14.7509 11.8502 14.7801C11.7694 14.8706 11.6853 14.9206 11.5779 14.976C11.5443 14.9934 11.5107 15.0108 11.4761 15.0287C11.4411 15.0467 11.406 15.0646 11.3699 15.0831C11.3182 15.1098 11.3182 15.1098 11.2656 15.137C11.1978 15.1721 11.1299 15.2069 11.062 15.2415C11.0076 15.2693 10.9535 15.2974 10.8997 15.3262C10.6973 15.433 10.4836 15.5049 10.2674 15.5789C10.23 15.5919 10.1927 15.605 10.1542 15.6185C8.19714 16.2935 6.01278 16.1517 4.15398 15.2506C3.98536 15.1666 3.82029 15.0772 3.65687 14.9835C3.63425 14.9705 3.61162 14.9576 3.5883 14.9442C3.2216 14.7311 2.89489 14.4799 2.57346 14.2038C2.54291 14.1777 2.51236 14.1516 2.48088 14.1246C2.39717 14.051 2.31572 13.9756 2.23489 13.8987C2.20808 13.8733 2.20808 13.8733 2.18072 13.8473C1.73807 13.424 1.37403 12.9605 1.04991 12.4411C1.03709 12.4206 1.02426 12.4001 1.01106 12.379C0.291132 11.2089 -0.0117299 9.86842 0.000346593 8.50879Z" fill="#C82D4D"/>
<path d="M22.5468 4.25657C22.7674 4.37296 22.9318 4.54675 23.0229 4.77989C23.109 5.06971 23.0575 5.32947 22.9213 5.59347C22.791 5.79914 22.6076 5.91671 22.3796 6.00026C22.0983 6.04097 21.8427 6.01364 21.6044 5.85605C21.4197 5.71292 21.335 5.54045 21.2624 5.32227C21.2348 5.03379 21.2309 4.79038 21.4029 4.54564C21.6967 4.21299 22.1219 4.08598 22.5468 4.25657Z" fill="#050505"/>
<path d="M22.53 4.61233C22.6381 4.65194 22.6868 4.6841 22.7521 4.77971C22.7449 4.99037 22.7449 4.99037 22.6506 5.0848C22.5294 5.10063 22.4687 5.09844 22.3649 5.03184C22.312 4.94921 22.312 4.94921 22.3141 4.82844C22.3459 4.71191 22.3459 4.71191 22.3882 4.64412C22.4474 4.61022 22.4474 4.61022 22.53 4.61233Z" fill="#F2F2F2"/>
</svg>
