<svg width="25" height="25" viewBox="0 0 25 25" fill="none" xmlns="http://www.w3.org/2000/svg">
<path d="M15.4131 0.540405H22.4893C23.572 0.540485 24.4597 1.42837 24.46 2.51111V9.58728C24.4599 10.6773 23.5732 11.5579 22.4893 11.558H15.4131C14.3221 11.5578 13.4425 10.6783 13.4424 9.58728V2.51111C13.4426 1.42738 14.3233 0.540627 15.4131 0.540405Z" stroke="white"/>
<path d="M2.97168 0.5H8.74609C10.113 0.500108 11.2178 1.61252 11.2178 2.97168V8.74609C11.2177 10.114 10.114 11.2177 8.74609 11.2178H2.97168C1.61252 11.2178 0.500108 10.113 0.5 8.74609V2.97168L0.512695 2.71973C0.631537 1.56119 1.56119 0.631537 2.71973 0.512695L2.97168 0.5Z" stroke="white"/>
<path d="M2.97168 13.783H8.74609C10.114 13.7831 11.2178 14.8867 11.2178 16.2546V22.0291C11.2177 23.3881 10.1129 24.5006 8.74609 24.5007H2.97168C1.6136 24.5007 0.500109 23.3871 0.5 22.0291V16.2546L0.512695 16.0017C0.631233 14.837 1.56023 13.9136 2.71973 13.7957L2.97168 13.783Z" stroke="white"/>
<path d="M16.2539 13.783H22.0283C23.3875 13.7831 24.5 14.8877 24.5 16.2546V22.0291C24.4999 23.387 23.3863 24.5006 22.0283 24.5007H16.2539C14.887 24.5007 13.7823 23.3882 13.7822 22.0291V16.2546L13.7949 16.0007C13.9129 14.8359 14.8351 13.9136 16 13.7957L16.2539 13.783Z" stroke="white"/>
</svg>
