<svg width="41" height="30" viewBox="0 0 41 30" fill="none" xmlns="http://www.w3.org/2000/svg">
<path d="M29.6523 29.4805C29.7117 29.5018 29.7791 29.5095 29.8877 29.4668C30.0468 29.4008 30.1461 29.2812 30.1875 28.9844L30.2012 28.8447C30.3699 26.0726 30.5555 23.2897 30.7324 20.5205V20.5215C30.7374 20.428 30.7475 20.3344 30.7588 20.2422L30.7949 19.9658L30.8428 19.5781L31.2314 19.5312C32.7392 19.3505 34.1086 18.8926 35.3271 18.0693L35.5684 17.9004L35.5703 17.8994C38.6098 15.7038 39.8594 12.6147 39.4316 8.85352C38.9954 5.09705 36.9881 2.5324 33.6387 1.18555L33.3105 1.05957C30.337 -0.0372194 27.547 0.566846 25.4033 2.10742C23.3832 3.55922 21.9415 5.84177 21.4883 8.31055L21.4111 8.80664L21.4102 8.80762C21.3444 9.31732 21.3495 10.0091 21.3818 10.6396C21.398 10.9546 21.4203 11.2439 21.4424 11.4756L21.5 11.9668C21.6241 12.6993 21.7147 13.4439 21.8115 14.1631C21.9092 14.8881 22.0139 15.5962 22.1689 16.2861L22.1699 16.2852C23.3289 21.3242 25.7769 25.6169 29.334 29.2461C29.4714 29.3848 29.5741 29.4523 29.6523 29.4805ZM8.82812 29.4795C8.89301 29.5039 8.96338 29.5118 9.06836 29.4727C9.18127 29.428 9.23969 29.3675 9.28125 29.292C9.31813 29.2249 9.34842 29.1321 9.36719 29.0039L9.38184 28.8633L9.93848 20.3623L9.93945 20.3613C9.94924 20.2192 9.96982 20.0859 9.98438 19.9727L10.0332 19.5938L10.4111 19.541C13.2389 19.146 15.5276 17.9148 17.0967 15.5195V15.5205C20.6599 10.0643 18.2098 2.23559 11.3018 0.711914L10.9697 0.644531C6.13206 -0.261689 1.80654 3.34049 0.762695 7.89746L0.671875 8.3418V8.34277L0.601562 8.7832C0.48099 9.65737 0.483136 10.4892 0.592773 11.3447L0.65625 11.7744V11.7754C0.936354 13.4547 1.05823 15.0284 1.43359 16.6035C2.54341 21.199 4.74364 25.1691 7.87109 28.5674L8.50879 29.2393L8.51172 29.2422C8.64277 29.3781 8.74633 29.4486 8.82812 29.4795Z" fill="#F6F1FF" stroke="#D6C3F2"/>
</svg>
