<svg width="610" height="447" viewBox="0 0 610 447" fill="none" xmlns="http://www.w3.org/2000/svg">
<mask id="path-1-inside-1_8793_1120" fill="white">
<path d="M0 5.00001C0 2.23859 2.23858 0 5 0H605C607.761 0 610 2.23858 610 5V442C610 444.761 607.761 447 605 447H4.99999C2.23857 447 0 444.761 0 442V5.00001Z"/>
</mask>
<path d="M0 5.00001C0 2.23859 2.23858 0 5 0H605C607.761 0 610 2.23858 610 5V442C610 444.761 607.761 447 605 447H4.99999C2.23857 447 0 444.761 0 442V5.00001Z" fill="#191919"/>
<path d="M-5 -10C-5 -15.5228 -0.522847 -20 5 -20H605C610.523 -20 615 -15.5228 615 -10L605 20H5L-5 -10ZM615 457C615 462.523 610.523 467 605 467H5C-0.522847 467 -5 462.523 -5 457L5 427H605L615 457ZM5 467C-0.522847 467 -5 462.523 -5 457V-10C-5 -15.5228 -0.522847 -20 5 -20V20V427V467ZM605 -20C610.523 -20 615 -15.5228 615 -10V457C615 462.523 610.523 467 605 467V427V20V-20Z" fill="#191919" mask="url(#path-1-inside-1_8793_1120)"/>
<rect x="13" y="5.24658" width="8" height="10.493" rx="1" fill="white"/>
<rect x="31" y="5.24658" width="8" height="10.493" rx="1" fill="white"/>
<rect x="49" y="5.24658" width="8" height="10.493" rx="1" fill="white"/>
<rect x="67" y="5.24658" width="8" height="10.493" rx="1" fill="white"/>
<rect x="103" y="5.24658" width="8" height="10.493" rx="1" fill="white"/>
<rect x="85" y="5.24658" width="8" height="10.493" rx="1" fill="white"/>
<rect x="121" y="5.24658" width="8" height="10.493" rx="1" fill="white"/>
<rect x="139" y="5.24658" width="8" height="10.493" rx="1" fill="white"/>
<rect x="193" y="5.24658" width="8" height="10.493" rx="1" fill="white"/>
<rect x="157" y="5.24658" width="8" height="10.493" rx="1" fill="white"/>
<rect x="175" y="5.24658" width="8" height="10.493" rx="1" fill="white"/>
<rect x="229" y="5.24658" width="8" height="10.493" rx="1" fill="white"/>
<rect x="211" y="5.24658" width="8" height="10.493" rx="1" fill="white"/>
<rect x="301" y="5.24658" width="8" height="10.493" rx="1" fill="white"/>
<rect x="247" y="5.24658" width="8" height="10.493" rx="1" fill="white"/>
<rect x="265" y="5.24658" width="8" height="10.493" rx="1" fill="white"/>
<rect x="283" y="5.24658" width="8" height="10.493" rx="1" fill="white"/>
<rect x="319" y="5.24658" width="8" height="10.493" rx="1" fill="white"/>
<rect x="337" y="5.24658" width="8" height="10.493" rx="1" fill="white"/>
<rect x="355" y="5.24658" width="8" height="10.493" rx="1" fill="white"/>
<rect x="373" y="5.24658" width="8" height="10.493" rx="1" fill="white"/>
<rect x="391" y="5.24658" width="8" height="10.493" rx="1" fill="white"/>
<rect x="427" y="5.24658" width="8" height="10.493" rx="1" fill="white"/>
<rect x="409" y="5.24658" width="8" height="10.493" rx="1" fill="white"/>
<rect x="445" y="5.24658" width="8" height="10.493" rx="1" fill="white"/>
<rect x="463" y="5.24658" width="8" height="10.493" rx="1" fill="white"/>
<rect x="481" y="5.24658" width="8" height="10.493" rx="1" fill="white"/>
<rect x="499" y="5.24658" width="8" height="10.493" rx="1" fill="white"/>
<rect x="517" y="5.24658" width="8" height="10.493" rx="1" fill="white"/>
<rect x="535" y="5.24658" width="8" height="10.493" rx="1" fill="white"/>
<rect x="553" y="5.24658" width="8" height="10.493" rx="1" fill="white"/>
<rect x="571" y="5.24658" width="8" height="10.493" rx="1" fill="white"/>
<rect x="589" y="5.24658" width="8" height="10.493" rx="1" fill="white"/>
<rect x="13" y="431.26" width="8" height="10.493" rx="1" fill="white"/>
<rect x="31" y="431.26" width="8" height="10.493" rx="1" fill="white"/>
<rect x="49" y="431.26" width="8" height="10.493" rx="1" fill="white"/>
<rect x="67" y="431.26" width="8" height="10.493" rx="1" fill="white"/>
<rect x="103" y="431.26" width="8" height="10.493" rx="1" fill="white"/>
<rect x="85" y="431.26" width="8" height="10.493" rx="1" fill="white"/>
<rect x="121" y="431.26" width="8" height="10.493" rx="1" fill="white"/>
<rect x="139" y="431.26" width="8" height="10.493" rx="1" fill="white"/>
<rect x="193" y="431.26" width="8" height="10.493" rx="1" fill="white"/>
<rect x="157" y="431.26" width="8" height="10.493" rx="1" fill="white"/>
<rect x="175" y="431.26" width="8" height="10.493" rx="1" fill="white"/>
<rect x="229" y="431.26" width="8" height="10.493" rx="1" fill="white"/>
<rect x="211" y="431.26" width="8" height="10.493" rx="1" fill="white"/>
<rect x="301" y="431.26" width="8" height="10.493" rx="1" fill="white"/>
<rect x="247" y="431.26" width="8" height="10.493" rx="1" fill="white"/>
<rect x="265" y="431.26" width="8" height="10.493" rx="1" fill="white"/>
<rect x="283" y="431.26" width="8" height="10.493" rx="1" fill="white"/>
<rect x="319" y="431.26" width="8" height="10.493" rx="1" fill="white"/>
<rect x="337" y="431.26" width="8" height="10.493" rx="1" fill="white"/>
<rect x="355" y="431.26" width="8" height="10.493" rx="1" fill="white"/>
<rect x="373" y="431.26" width="8" height="10.493" rx="1" fill="white"/>
<rect x="391" y="431.26" width="8" height="10.493" rx="1" fill="white"/>
<rect x="427" y="431.26" width="8" height="10.493" rx="1" fill="white"/>
<rect x="409" y="431.26" width="8" height="10.493" rx="1" fill="white"/>
<rect x="445" y="431.26" width="8" height="10.493" rx="1" fill="white"/>
<rect x="463" y="431.26" width="8" height="10.493" rx="1" fill="white"/>
<rect x="481" y="431.26" width="8" height="10.493" rx="1" fill="white"/>
<rect x="499" y="431.26" width="8" height="10.493" rx="1" fill="white"/>
<rect x="517" y="431.26" width="8" height="10.493" rx="1" fill="white"/>
<rect x="535" y="431.26" width="8" height="10.493" rx="1" fill="white"/>
<rect x="553" y="431.26" width="8" height="10.493" rx="1" fill="white"/>
<rect x="571" y="431.26" width="8" height="10.493" rx="1" fill="white"/>
<rect x="589" y="431.26" width="8" height="10.493" rx="1" fill="white"/>
</svg>
