<svg xmlns="http://www.w3.org/2000/svg" width="55" height="44" viewBox="0 0 55 44" fill="none">
<path d="M20.0596 0.5H34.6182C35.722 0.500112 36.6954 1.22403 37.0127 2.28125L37.8076 4.93066C37.998 5.56514 38.5817 6 39.2441 6H50C52.4853 6 54.5 8.01472 54.5 10.5V39C54.5 41.4853 52.4853 43.5 50 43.5H5C2.51472 43.5 0.5 41.4853 0.5 39V10.5C0.5 8.01472 2.51472 6 5 6H8.2002V4.2998C8.2003 4.02375 8.42412 3.7998 8.7002 3.7998H12.2002C12.4762 3.79991 12.7001 4.02382 12.7002 4.2998V6H15.6807C16.3955 5.99978 17.0112 5.49493 17.1514 4.79395L17.6084 2.50977C17.8421 1.34122 18.8679 0.5 20.0596 0.5Z" fill="#111111" stroke="#666666"/>
<circle cx="27.5" cy="24" r="15.5" fill="#ffffff"/>
</svg>
