<svg xmlns="http://www.w3.org/2000/svg" width="20" height="20" viewBox="0 0 20 20" fill="none">
<path d="M5.75 9.375V10.625C5.75 10.6943 5.69433 10.75 5.625 10.75H4.375C4.30567 10.75 4.25 10.6943 4.25 10.625V9.375C4.25 9.30567 4.30567 9.25 4.375 9.25H5.625C5.69433 9.25 5.75 9.30567 5.75 9.375ZM4.375 14.25H5.625C5.69433 14.25 5.75 14.3057 5.75 14.375V15.625C5.75 15.6943 5.69433 15.75 5.625 15.75H4.375C4.30567 15.75 4.25 15.6943 4.25 15.625V14.375C4.25 14.3057 4.30567 14.25 4.375 14.25ZM9.375 9.25H10.625C10.6943 9.25 10.75 9.30567 10.75 9.375V10.625C10.75 10.6943 10.6943 10.75 10.625 10.75H9.375C9.30567 10.75 9.25 10.6943 9.25 10.625V9.375C9.25 9.30567 9.30567 9.25 9.375 9.25ZM9.375 14.25H10.625C10.6943 14.25 10.75 14.3057 10.75 14.375V15.625C10.75 15.6943 10.6943 15.75 10.625 15.75H9.375C9.30567 15.75 9.25 15.6943 9.25 15.625V14.375C9.25 14.3057 9.30567 14.25 9.375 14.25ZM14.375 9.25H15.625C15.6943 9.25 15.75 9.30567 15.75 9.375V10.625C15.75 10.6943 15.6943 10.75 15.625 10.75H14.375C14.3057 10.75 14.25 10.6943 14.25 10.625V9.375C14.25 9.30567 14.3057 9.25 14.375 9.25ZM14.375 14.25H15.625C15.6943 14.25 15.75 14.3057 15.75 14.375V15.625C15.75 15.6943 15.6943 15.75 15.625 15.75H14.375C14.3057 15.75 14.25 15.6943 14.25 15.625V14.375C14.25 14.3057 14.3057 14.25 14.375 14.25ZM5.625 3.25H4.375C4.30567 3.25 4.25 3.19433 4.25 3.125V0.625C4.25 0.555674 4.30567 0.5 4.375 0.5H5.625C5.69433 0.5 5.75 0.555674 5.75 0.625V3.125C5.75 3.19433 5.69433 3.25 5.625 3.25ZM19.5 5V17.5C19.5 18.6045 18.6045 19.5 17.5 19.5H2.5C1.39552 19.5 0.5 18.6045 0.5 17.5V5C0.5 3.89552 1.39552 3 2.5 3H2.625V3.125C2.625 4.08946 3.40959 4.875 4.375 4.875H5.625C6.59041 4.875 7.375 4.08946 7.375 3.125V3H12.625V3.125C12.625 4.08962 13.4104 4.875 14.375 4.875H15.625C16.5896 4.875 17.375 4.08962 17.375 3.125V3H17.5C18.6045 3 19.5 3.89552 19.5 5ZM19.25 7.5C19.25 6.5357 18.4661 5.75 17.5 5.75H2.5C1.53459 5.75 0.75 6.53554 0.75 7.5V17.5C0.75 18.466 1.53491 19.25 2.5 19.25H17.5C18.4658 19.25 19.25 18.4658 19.25 17.5V7.5ZM15.625 3.25H14.375C14.3057 3.25 14.25 3.19433 14.25 3.125V0.625C14.25 0.555674 14.3057 0.5 14.375 0.5H15.625C15.6943 0.5 15.75 0.555674 15.75 0.625V3.125C15.75 3.19433 15.6943 3.25 15.625 3.25Z" fill="#919191" stroke="#919191"/>
</svg>
