<svg width="34" height="27" viewBox="0 0 34 27" fill="none" xmlns="http://www.w3.org/2000/svg">
<g clip-path="url(#clip0_1803_1142)">
<path d="M17.0326 -0.000637624C21.3621 -0.000637624 25.6829 -0.0093176 30.0124 0.00804235C30.5786 0.00804235 31.1535 0.0688022 31.7023 0.190322C32.6867 0.416001 33.3662 1.04096 33.793 1.94368C34.1676 2.73355 34.0457 3.16755 33.3139 3.62759C32.3644 4.22651 31.4061 4.81675 30.4566 5.41567C26.3101 8.0457 22.1635 10.6584 18.0344 13.3058C17.2852 13.7918 16.6929 13.7745 15.9437 13.2971C10.9173 10.0768 5.86477 6.89994 0.820957 3.70571C0.716422 3.63627 0.603175 3.57551 0.507352 3.50607C0.0108106 3.16755 -0.0850131 2.89847 0.0892118 2.33428C0.516063 0.945479 1.57884 0.138242 3.13815 0.0514422C3.76536 0.0167223 4.39257 0.0167223 5.01107 0.00804235C9.01824 0.00804235 13.0254 0.00804235 17.0326 -0.000637624C17.0326 0.00804235 17.0326 -0.000637624 17.0326 -0.000637624Z" fill="#3eb8b6"/>
<path d="M16.9609 26.0313C12.5617 26.0313 8.17125 26.0399 3.77207 26.0226C3.22326 26.0226 2.65703 25.9618 2.12565 25.8143C1.05416 25.5105 0.392108 24.7553 0.0697915 23.705C-0.0957222 23.1582 0.000101554 22.8891 0.496643 22.5766C4.55608 20.0334 8.61553 17.4902 12.675 14.9469C13.1018 14.6778 13.5548 14.6778 13.9817 14.9296C14.7482 15.3809 15.4974 15.8496 16.2466 16.327C16.8651 16.7263 17.1264 16.735 17.7275 16.3444C18.5202 15.8323 19.3216 15.3375 20.1144 14.8254C20.5412 14.5476 20.9245 14.6344 21.3165 14.8862C22.6145 15.7194 23.9125 16.544 25.2192 17.3686C27.8848 19.0526 30.5592 20.7191 33.2248 22.403C34.0437 22.9151 34.1743 23.3405 33.7736 24.1998C33.2248 25.3629 32.2317 25.8577 31.0209 26.0052C30.716 26.0399 30.4111 26.0399 30.1062 26.0399C25.7244 26.0313 21.3427 26.0313 16.9609 26.0313Z" fill="#3eb8b6"/>
<path d="M0.0615234 19.9987C0.0615234 15.3288 0.0615234 10.7371 0.0615234 6.06732C3.73767 8.40223 7.36155 10.6937 11.0464 13.0287C7.37026 15.3636 3.74638 17.6638 0.0615234 19.9987Z" fill="#3eb8b6"/>
<path d="M22.9803 13.0287C26.6478 10.7024 30.2717 8.40223 33.9478 6.06732C33.9478 10.7198 33.9478 15.3028 33.9478 19.9813C30.2804 17.6638 26.6565 15.3636 22.9803 13.0287Z" fill="#3eb8b6"/>
</g>
<defs>
<clipPath id="clip0_1803_1142">
<rect width="34" height="26.0312" fill="white"/>
</clipPath>
</defs>
</svg>
