<svg width="20" height="26" viewBox="0 0 20 26" fill="none" xmlns="http://www.w3.org/2000/svg">
<g clip-path="url(#clip0_1803_1106)">
<path d="M9.99348 21.3252C9.65861 20.9328 9.33688 20.5606 9.02171 20.185C7.32112 18.1393 5.71245 16.0232 4.32046 13.7462C3.69341 12.7233 3.14515 11.6603 2.67568 10.5502C1.81225 8.50122 1.95999 6.48574 2.91206 4.53398C4.14318 2.01212 6.16222 0.509733 8.89368 0.0905402C13.0959 -0.55334 17.088 2.45814 17.7742 6.71378C17.9974 8.10886 17.784 9.41674 17.2489 10.6978C16.6514 12.1264 15.8799 13.4544 15.0394 14.7388C13.5391 17.0259 11.8615 19.1688 10.0756 21.2279C10.0559 21.2514 10.0329 21.2782 9.99348 21.3252ZM13.9429 7.37108C13.9462 5.15103 12.1734 3.34347 9.99676 3.34347C7.81685 3.34347 6.04732 5.14768 6.04732 7.36772C6.04732 9.58777 7.81685 11.3953 9.99348 11.3953C12.1701 11.3953 13.9396 9.59447 13.9429 7.37108Z" fill="#3eb8b6"/>
<path d="M6.92352 18.592C6.54269 18.649 6.16515 18.7027 5.79088 18.7698C4.66153 18.9676 3.55517 19.246 2.51117 19.7457C2.10408 19.9435 1.71669 20.1716 1.39824 20.5036C0.886091 21.0401 0.886091 21.5901 1.41137 22.1166C1.85786 22.566 2.41268 22.8276 2.98721 23.0556C4.10014 23.4916 5.26232 23.7297 6.44092 23.8906C8.066 24.1153 9.70093 24.169 11.3391 24.0885C13.1743 23.9979 14.9898 23.7632 16.7397 23.1529C17.2584 22.9718 17.764 22.7571 18.2105 22.4218C18.4107 22.2709 18.6044 22.0965 18.7587 21.8986C19.0575 21.5163 19.0673 21.0904 18.7587 20.7182C18.5486 20.4633 18.2892 20.2319 18.0135 20.0508C17.242 19.5444 16.3753 19.256 15.4888 19.0481C14.7535 18.8771 14.0082 18.7664 13.2663 18.6289C13.2006 18.6155 13.1382 18.6054 13.0726 18.5954C13.194 18.3338 13.217 18.3271 13.4829 18.3472C14.5795 18.4344 15.6727 18.5551 16.7462 18.8C17.3306 18.9307 17.9084 19.0884 18.437 19.3734C18.7686 19.5511 19.0969 19.7591 19.3693 20.0139C20.0686 20.6712 20.1934 21.5834 19.7469 22.4419C19.5072 22.9047 19.156 23.2702 18.7554 23.5888C17.8822 24.283 16.8874 24.7424 15.8434 25.0945C13.6471 25.8357 11.3851 26.0805 9.08045 25.9799C7.31091 25.8994 5.58077 25.6076 3.90645 24.9973C2.87559 24.6217 1.89397 24.1522 1.05352 23.4144C0.685829 23.0925 0.373944 22.7169 0.176964 22.2575C-0.154618 21.4828 -0.00360029 20.6645 0.57749 20.0642C1.06337 19.5612 1.67729 19.2829 2.31748 19.0649C3.19404 18.7664 4.10014 18.6122 5.01281 18.4981C5.5184 18.4344 6.02398 18.3975 6.53284 18.3439C6.77907 18.3204 6.79876 18.3338 6.92352 18.592Z" fill="#3eb8b6"/>
</g>
<defs>
<clipPath id="clip0_1803_1106">
<rect width="20" height="26" fill="white"/>
</clipPath>
</defs>
</svg>
