<svg width="25" height="25" viewBox="0 0 25 25" fill="none" xmlns="http://www.w3.org/2000/svg">
<path d="M15.413 0.540527H22.4891C23.5719 0.540607 24.4596 1.4285 24.4598 2.51123V9.5874C24.4598 10.6774 23.5731 11.558 22.4891 11.5581H15.413C14.322 11.5579 13.4423 10.6784 13.4423 9.5874V2.51123C13.4425 1.4275 14.3232 0.540749 15.413 0.540527Z" stroke="#3eb8b6"/>
<path d="M2.97168 0.5H8.74609C10.113 0.500108 11.2178 1.61252 11.2178 2.97168V8.74609C11.2177 10.114 10.114 11.2177 8.74609 11.2178H2.97168C1.61252 11.2178 0.500108 10.113 0.5 8.74609V2.97168C0.5 1.61354 1.61354 0.5 2.97168 0.5Z" stroke="#3eb8b6"/>
<path d="M2.97168 13.783H8.74609C10.114 13.7831 11.2178 14.8867 11.2178 16.2546V22.0291C11.2177 23.3881 10.1129 24.5006 8.74609 24.5007H2.97168C1.6136 24.5007 0.500109 23.3871 0.5 22.0291V16.2546C0.5 14.8877 1.61245 13.783 2.97168 13.783Z" stroke="#3eb8b6"/>
<path d="M16.2539 13.783H22.0283C23.3875 13.7831 24.5 14.8877 24.5 16.2546V22.0291C24.4999 23.387 23.3863 24.5006 22.0283 24.5007H16.2539C14.887 24.5007 13.7823 23.3882 13.7822 22.0291V16.2546C13.7822 14.8866 14.8859 13.783 16.2539 13.783Z" stroke="#3eb8b6"/>
</svg>
