<svg xmlns="http://www.w3.org/2000/svg" width="24" height="20" viewBox="0 0 24 20" fill="none">
<g clip-path="url(#clip0_3056_3043)">
<path d="M0.31262 20C0.211822 19.8165 0.0505452 19.6427 0.0203058 19.4495C-0.0300932 19.1019 0.0203058 18.7446 0.000146203 18.3969C-0.0099336 18.0782 0.131184 17.9141 0.473897 17.9237C0.574695 17.9237 0.675493 17.9237 0.776291 17.9237C8.26558 17.9237 15.7448 17.9237 23.2341 17.9334C23.4861 17.9334 23.7381 18.0299 23.9901 18.0782C23.9901 18.7156 23.9901 19.3626 23.9901 20C16.1077 20 8.2051 20 0.31262 20Z" fill="#a4866d"/>
<path d="M12.0254 8.18927C14.7167 8.18927 17.408 8.18927 20.1094 8.18927C21.6315 8.18927 22.3774 8.91356 22.3874 10.3814C22.3874 10.4008 22.3874 10.4104 22.3874 10.4297C22.5689 11.2796 22.1556 11.7624 21.3694 12.0908C20.5731 12.4191 19.807 12.4867 19.1115 11.9169C18.7688 11.6369 18.4866 11.2989 18.2043 10.9609C17.8314 10.5263 17.4786 10.5166 17.0956 10.9416C16.8436 11.2216 16.5916 11.5017 16.3093 11.7431C15.513 12.4288 14.6361 12.506 13.739 11.9556C13.3358 11.7045 12.9729 11.3858 12.6201 11.0671C12.1363 10.6325 11.9246 10.6325 11.4509 11.0864C11.1787 11.3472 10.8965 11.5983 10.584 11.8107C9.52563 12.5447 8.56805 12.4964 7.58023 11.6852C7.42903 11.5596 7.28791 11.4244 7.15687 11.2796C6.48153 10.536 6.34041 10.536 5.66506 11.3085C4.7478 12.3515 3.58863 12.5833 2.29841 12.0232C1.79442 11.8011 1.60291 11.4631 1.6533 10.9609C1.68354 10.7194 1.71378 10.478 1.68354 10.2462C1.51219 9.05842 2.51009 8.16996 3.8003 8.17961C6.53193 8.20858 9.27363 8.18927 12.0254 8.18927Z" fill="#a4866d"/>
<path d="M22.1861 16.62C15.4024 16.62 8.64894 16.62 1.86523 16.62C1.86523 15.606 1.86523 14.592 1.86523 13.5394C3.54856 14.0802 5.02021 13.7325 6.22979 12.4867C8.24575 14.3409 10.1004 14.0898 12.0458 12.4288C14.4549 14.4375 16.1886 13.9739 17.8316 12.3998C18.386 12.9696 18.9908 13.4911 19.8174 13.6939C20.6338 13.8967 21.3999 13.7325 22.2063 13.4042C22.1861 14.4858 22.1861 15.5287 22.1861 16.62Z" fill="#a4866d"/>
<path d="M10.5836 7.2815C10.5836 6.32544 10.5735 5.3887 10.5937 4.44229C10.6037 4.13326 10.8356 3.94978 11.1682 3.94978C11.7226 3.94012 12.277 3.94012 12.8213 3.94978C13.2043 3.94978 13.4261 4.16224 13.4261 4.51955C13.4462 5.42732 13.4362 6.34475 13.4362 7.2815C12.4786 7.2815 11.5512 7.2815 10.5836 7.2815Z" fill="#a4866d"/>
<path d="M12.015 0C12.257 0.424915 12.5392 0.907774 12.8113 1.40029C12.9323 1.6224 13.0936 1.84452 13.1641 2.08595C13.3153 2.61709 13.0734 3.19652 12.64 3.4283C12.2066 3.66007 11.5413 3.59247 11.1885 3.28344C10.8155 2.94544 10.6946 2.29841 10.9567 1.82521C11.2994 1.18783 11.6723 0.569773 12.015 0Z" fill="#a4866d"/>
</g>
<defs>
<clipPath id="clip0_3056_3043">
<rect width="24" height="20" fill="#a4866d"/>
</clipPath>
</defs>
</svg>
