<svg xmlns="http://www.w3.org/2000/svg" width="18" height="24" viewBox="0 0 18 24" fill="none">
<g clip-path="url(#clip0_3056_3054)">
<path d="M8.99374 19.6847C8.69236 19.3226 8.4028 18.979 8.11915 18.6322C6.58862 16.7439 5.14082 14.7906 3.88803 12.6887C3.32368 11.7446 2.83024 10.7633 2.40772 9.73866C1.63064 7.84726 1.7636 5.98682 2.62046 4.1852C3.72847 1.85732 5.54561 0.470506 8.00392 0.0835592C11.7859 -0.510791 15.3788 2.26904 15.9964 6.19732C16.1973 7.48508 16.0052 8.69236 15.5236 9.87487C14.9859 11.1936 14.2915 12.4194 13.5351 13.605C12.1848 15.7162 10.675 17.6943 9.06761 19.595C9.04988 19.6166 9.0292 19.6414 8.99374 19.6847ZM12.5482 6.80405C12.5512 4.75478 10.9557 3.08627 8.9967 3.08627C7.03478 3.08627 5.4422 4.75169 5.4422 6.80096C5.4422 8.85023 7.03478 10.5187 8.99374 10.5187C10.9527 10.5187 12.5453 8.85642 12.5482 6.80405Z" fill="#a4866d"/>
<path d="M6.23156 17.1619C5.88881 17.2145 5.54902 17.264 5.21219 17.3259C4.19577 17.5086 3.20004 17.7655 2.26045 18.2267C1.89406 18.4094 1.54541 18.6199 1.25881 18.9263C0.797873 19.4216 0.797873 19.9293 1.27062 20.4153C1.67246 20.8301 2.17181 21.0716 2.68888 21.2821C3.69052 21.6845 4.73648 21.9043 5.79722 22.0529C7.25979 22.2603 8.73123 22.3098 10.2056 22.2355C11.8573 22.1519 13.4912 21.9352 15.0661 21.3719C15.5329 21.2047 15.988 21.0066 16.3898 20.697C16.57 20.5577 16.7444 20.3967 16.8832 20.2141C17.1521 19.8612 17.161 19.4681 16.8832 19.1245C16.6941 18.8892 16.4607 18.6756 16.2125 18.5084C15.5182 18.041 14.7381 17.7748 13.9404 17.5829C13.2785 17.425 12.6078 17.3228 11.94 17.1959C11.8809 17.1835 11.8248 17.1743 11.7657 17.165C11.875 16.9235 11.8957 16.9173 12.135 16.9359C13.1219 17.0164 14.1058 17.1278 15.072 17.3538C15.5979 17.4745 16.118 17.62 16.5937 17.8831C16.8921 18.0472 17.1876 18.2391 17.4328 18.4744C18.0622 19.0811 18.1744 19.9231 17.7726 20.7156C17.5569 21.1428 17.2407 21.4802 16.8803 21.7743C16.0943 22.4151 15.1991 22.8392 14.2595 23.1642C12.2828 23.8483 10.247 24.0743 8.17279 23.9814C6.58021 23.9071 5.02309 23.6378 3.51619 23.0744C2.58842 22.7277 1.70496 22.2943 0.948562 21.6133C0.617636 21.3161 0.33694 20.9694 0.159659 20.5453C-0.138766 19.8303 -0.00284963 19.0749 0.520131 18.5208C0.957426 18.0565 1.50995 17.7996 2.08612 17.5983C2.87502 17.3228 3.69052 17.1804 4.51192 17.0752C4.96695 17.0164 5.42197 16.9823 5.87995 16.9328C6.10155 16.9111 6.11928 16.9235 6.23156 17.1619Z" fill="#a4866d"/>
</g>
<defs>
<clipPath id="clip0_3056_3054">
<rect width="18" height="24" fill="#a4866d"/>
</clipPath>
</defs>
</svg>
