<svg width="48" height="37" viewBox="0 0 48 37" fill="none" xmlns="http://www.w3.org/2000/svg">
<path d="M1.10909 36.0987C1.10051 34.0963 1.04844 32.3488 1.12716 30.6037C1.14068 30.2904 1.63517 29.8521 1.99724 29.7247C3.29717 29.2741 4.69022 29.0544 5.95116 28.5221C8.33953 27.5165 9.82409 25.7595 10.026 22.9336C7.97515 22.9424 6.00163 22.9567 4.03102 22.9593C1.80182 22.9601 1.05574 22.2578 1.03764 20.1149C0.999769 15.437 0.961883 10.7561 0.947775 6.07512C0.942872 2.84905 2.69208 1.1202 5.99117 1.08851C9.95009 1.05398 13.9091 1.04288 17.8711 1.03761C20.1657 1.03364 20.9208 1.76813 20.9304 4.00468C20.9551 9.75707 21.0065 15.5094 20.9835 21.2619C20.9489 29.1399 15.4062 34.8284 6.8146 35.8049C5.00833 36.0088 3.17438 35.9961 1.11205 36.0957L1.10909 36.0987Z" fill="#A4866D"/>
<path d="M27.1088 35.9873C27.1003 33.985 27.0482 32.2375 27.1269 30.4924C27.1404 30.1791 27.6349 29.7408 27.997 29.6133C29.2969 29.1628 30.69 28.9431 31.9509 28.4108C34.3393 27.4052 35.8238 25.6482 36.0257 22.8223C33.9749 22.8311 32.0014 22.8454 30.0308 22.848C27.8016 22.8488 27.0555 22.1464 27.0374 20.0036C26.9995 15.3256 26.9616 10.6448 26.9475 5.96379C26.9426 2.73773 28.6918 1.00887 31.9909 0.977177C35.9498 0.942653 39.9089 0.931548 43.8709 0.926285C46.1655 0.922311 46.9206 1.6568 46.9302 3.89335C46.9548 9.64575 47.0062 15.398 46.9833 21.1506C46.9487 29.0286 41.406 34.717 32.8144 35.6936C31.0081 35.8974 29.1741 35.8848 27.1118 35.9844L27.1088 35.9873Z" fill="#A4866D"/>
</svg>
