<!-- <svg width="50" height="50" viewBox="0 0 50 50" fill="none" xmlns="http://www.w3.org/2000/svg">
<path d="M8 0.5H32.6865C34.6754 0.500061 36.5828 1.29005 37.9893 2.69629L47.3037 12.0107C48.7099 13.4172 49.4999 15.3246 49.5 17.3135V42C49.5 46.1421 46.1421 49.5 42 49.5H8C3.85786 49.5 0.5 46.1421 0.5 42V8C0.500001 3.85787 3.85787 0.5 8 0.5Z" fill="#DDE8DD" stroke="#364540"/>
</svg> -->
<svg xmlns="http://www.w3.org/2000/svg" width="50" height="50" viewBox="0 0 50 50" fill="none">
<path d="M37.4648 0.990234C43.5164 -0.685486 49.5 3.86617 49.5 10.1455V40C49.5 45.2467 45.2467 49.5 40 49.5H10C4.7533 49.5 0.5 45.2467 0.5 40V6.01367C0.5 2.2719 4.45959 -0.144887 7.78711 1.56641L17.2715 6.44434L17.4453 6.53418L17.6338 6.48145L37.4648 0.990234Z" fill="#f2ece7" stroke="#a98345"/>
</svg>
