<svg xmlns="http://www.w3.org/2000/svg" width="60" height="46" viewBox="0 0 60 46" fill="none">
<path opacity="0.75" d="M22.1025 0.264648C23.5869 0.268436 24.4929 0.512327 25.0381 1.0459C25.5812 1.57773 25.8271 2.45733 25.8271 3.90137C25.8271 11.4061 25.8618 18.9074 25.7998 26.4092C25.7557 31.4855 23.9417 35.8382 20.7617 39.0742C17.5803 42.3117 13.0186 44.4451 7.46094 45.0527C5.18768 45.2995 2.89556 45.2818 0.291992 45.3887C0.288464 42.8792 0.239406 40.6883 0.347656 38.4971H0.348633C0.350663 38.4543 0.371723 38.3844 0.430664 38.29C0.487812 38.1986 0.570097 38.0994 0.670898 38.0029C0.874922 37.8076 1.12423 37.6469 1.31836 37.5791L1.31934 37.5801C2.15715 37.2937 3.02389 37.0812 3.90234 36.8516C4.77581 36.6232 5.65687 36.3782 6.49805 36.0273C8.0895 35.3653 9.39597 34.446 10.3398 33.21C11.2845 31.9728 11.8553 30.4326 11.998 28.5488L12.0176 28.2803H3.92969L3.41504 28.2676C2.27249 28.212 1.53809 27.9768 1.07129 27.5303C0.541099 27.0231 0.295807 26.1845 0.290039 24.8027C0.266778 18.7009 0.244202 12.596 0.251953 6.49121C0.257647 4.43125 0.819961 2.8907 1.87012 1.86133C2.9211 0.831214 4.49812 0.275009 6.6084 0.263672C11.7714 0.240766 16.9349 0.249376 22.1025 0.264648Z" fill="white" stroke="#A98345" stroke-width="0.5"/>
<path opacity="0.75" d="M56.0146 0.264648C57.499 0.268436 58.405 0.512327 58.9502 1.0459C59.4933 1.57773 59.7392 2.45733 59.7393 3.90137C59.7393 11.4061 59.7739 18.9074 59.7119 26.4092C59.6678 31.4855 57.8538 35.8382 54.6738 39.0742C51.4924 42.3117 46.9307 44.4451 41.373 45.0527C39.0998 45.2995 36.8077 45.2818 34.2041 45.3887C34.2006 42.8792 34.1515 40.6883 34.2598 38.4971H34.2607C34.2628 38.4543 34.2838 38.3844 34.3428 38.29C34.3999 38.1986 34.4822 38.0994 34.583 38.0029C34.787 37.8076 35.0363 37.6469 35.2305 37.5791L35.2314 37.5801C36.0693 37.2937 36.936 37.0812 37.8145 36.8516C38.6879 36.6232 39.569 36.3782 40.4102 36.0273C42.0016 35.3653 43.3081 34.446 44.252 33.21C45.1966 31.9728 45.7675 30.4326 45.9102 28.5488L45.9297 28.2803H37.8418L37.3271 28.2676C36.1846 28.212 35.4502 27.9768 34.9834 27.5303C34.4532 27.0231 34.2079 26.1845 34.2021 24.8027C34.1789 18.7009 34.1563 12.596 34.1641 6.49121C34.1698 4.43125 34.7321 2.8907 35.7822 1.86133C36.8332 0.831214 38.4102 0.275009 40.5205 0.263672C45.6835 0.240766 50.847 0.249376 56.0146 0.264648Z" fill="white" stroke="#A98345" stroke-width="0.5"/>
</svg>
