<svg xmlns="http://www.w3.org/2000/svg" width="54" height="84" viewBox="0 0 54 84" fill="none">
<g clip-path="url(#clip0_8567_1045)">
<path d="M51.9577 36.4301L36.7852 70.143" stroke="#081C15" stroke-width="1.23" stroke-miterlimit="10"/>
<path d="M2.04297 36.4301L17.2155 70.143" stroke="#081C15" stroke-width="1.23" stroke-miterlimit="10"/>
<path d="M54.0007 27.0349C53.9976 22.3086 52.7573 17.6656 50.4034 13.569C48.0495 9.47236 44.6642 6.06535 40.5852 3.68766C36.5063 1.30998 31.8761 0.0447176 27.1565 0.018069C22.4368 -0.00857959 17.7927 1.20431 13.6872 3.53578C9.58171 5.86725 6.15831 9.23583 3.75842 13.3056C1.35852 17.3753 0.0659922 22.004 0.00973112 26.7301C-0.04653 31.4561 1.13544 36.1144 3.43777 40.2403C5.74011 44.3662 9.08234 47.8155 13.1312 50.2443C14.036 50.7832 14.7855 51.5483 15.3062 52.4646C15.8269 53.3808 16.1009 54.4169 16.1014 55.4711V59.1749C16.103 59.1895 16.1095 59.2032 16.1199 59.2136C16.1303 59.224 16.1439 59.2305 16.1585 59.2321H37.8642C37.8788 59.2305 37.8925 59.224 37.9029 59.2136C37.9133 59.2032 37.9198 59.1895 37.9213 59.1749V55.4711C37.9234 54.4162 38.1981 53.3798 38.7185 52.4626C39.239 51.5455 39.9876 50.7788 40.8916 50.2372C44.8939 47.8354 48.2056 44.435 50.5033 40.3683C52.801 36.3015 54.006 31.7075 54.0007 27.0349Z" fill="#B4B186"/>
<path d="M38.0207 30.2595C38.0327 34.0559 37.7942 37.849 37.3067 41.6139C37.6035 41.5898 37.901 41.6519 38.1635 41.7927C38.6584 37.9685 38.897 34.1155 38.8775 30.2595C38.8775 21.5792 37.678 13.4208 35.4932 7.2717C34.7004 4.8248 33.5112 2.52512 31.9731 0.464756C31.5233 0.378954 31.0663 0.307454 30.6094 0.243103C32.1088 1.79469 33.5082 4.29009 34.672 7.56486C36.8355 13.6067 38.0207 21.6793 38.0207 30.2595Z" fill="#081C15"/>
<path d="M16.7297 41.7712C16.2166 37.9556 15.9637 34.1095 15.9729 30.2595C15.9729 21.6793 17.1581 13.621 19.3072 7.56486C20.4711 4.29009 21.8634 1.80184 23.3628 0.243103C22.9058 0.307454 22.4489 0.386111 21.999 0.471913C20.465 2.53222 19.2761 4.82885 18.479 7.2717C16.3013 13.4208 15.1018 21.572 15.1018 30.2595C15.093 34.2365 15.3578 38.2095 15.8943 42.1502C16.128 41.9419 16.4193 41.8098 16.7297 41.7712Z" fill="#081C15"/>
<path d="M48.3242 35.9081C46.229 35.9066 44.1645 36.4138 42.3079 37.3864C40.4513 38.359 38.8579 39.7679 37.6642 41.4924C36.4712 39.7653 34.8778 38.3538 33.0205 37.3788C31.1632 36.4039 29.0975 35.8946 27.0006 35.8946C24.9036 35.8946 22.8379 36.4039 20.9806 37.3788C19.1233 38.3538 17.5299 39.7653 16.3369 41.4924C14.7582 39.1957 12.4831 37.4689 9.84835 36.5675C7.21357 35.6661 4.35902 35.638 1.70703 36.4873C1.78557 36.6946 1.86411 36.8948 1.94979 37.1022C3.15443 36.7158 4.41197 36.5204 5.67688 36.523C7.69539 36.5232 9.68291 37.0202 11.4646 37.9703C13.2462 38.9204 14.7674 40.2944 15.8943 41.9714H16.7868C17.913 40.2947 19.4336 38.921 21.2147 37.9711C22.9957 37.0213 24.9827 36.5245 27.0006 36.5245C29.0185 36.5245 31.0054 37.0213 32.7865 37.9711C34.5676 38.921 36.0881 40.2947 37.2144 41.9714H38.1069C39.2337 40.2944 40.7549 38.9204 42.5366 37.9703C44.3182 37.0202 46.3057 36.5232 48.3242 36.523C49.5892 36.5204 50.8467 36.7158 52.0513 37.1022C52.1299 36.8948 52.2156 36.6946 52.287 36.4873C51.0048 36.0864 49.6674 35.8909 48.3242 35.9081Z" fill="#081C15"/>
<path d="M37.9001 56.2717H16.1016V59.2319H37.9001V56.2717Z" fill="black"/>
<path d="M37.9001 69.1348H16.1016V72.095H37.9001V69.1348Z" fill="#D9D8C2"/>
<path d="M36.7856 72.095H17.2148L19.0712 82.1981C19.1653 82.7001 19.4301 83.154 19.8206 83.4825C20.2112 83.811 20.7033 83.9939 21.2133 84H32.7587C33.269 83.9952 33.7619 83.8129 34.1527 83.4841C34.5435 83.1554 34.8079 82.7007 34.9007 82.1981L36.7856 72.095Z" fill="#081C15"/>
<path d="M8.76172 7.17159C14.6869 8.88218 20.8315 9.70857 26.9973 9.62409C33.1778 9.717 39.3378 8.8905 45.2758 7.17159C40.3013 2.58034 33.7838 0.0314331 27.0188 0.0314331C20.2537 0.0314331 13.7363 2.58034 8.76172 7.17159Z" fill="#B4B186"/>
<path d="M26.9961 7.93666C21.3387 7.99423 15.6979 7.31157 10.2171 5.90601C9.71727 6.30641 9.2246 6.71398 8.78906 7.15014C14.7142 8.86073 20.8588 9.68711 27.0247 9.60263C33.1945 9.69968 39.3446 8.88044 45.2746 7.17159C44.8105 6.74258 44.3178 6.32787 43.8466 5.93461C38.3407 7.33366 32.676 8.0067 26.9961 7.93666Z" fill="#081C15"/>
<path d="M16.3359 41.5067L21.1697 70.6149" stroke="#081C15" stroke-width="1.23" stroke-miterlimit="10"/>
<path d="M37.6639 41.5067L32.8301 70.6149" stroke="#081C15" stroke-width="1.23" stroke-miterlimit="10"/>
</g>
<defs>
<clipPath id="clip0_8567_1045">
<rect width="54" height="84" fill="white"/>
</clipPath>
</defs>
</svg>