<svg xmlns="http://www.w3.org/2000/svg" width="106" height="44" viewBox="0 0 106 44" fill="none">
<g filter="url(#filter0_d_5066_18)">
<path d="M13.4393 18.7299L13.2031 18.4179C12.8382 17.9404 12.3301 17.291 11.7361 16.508C10.3406 16.3552 8.40126 16.1578 7.78582 16.1642C6.52556 16.2551 5.2904 16.5282 4.12896 16.9727C4.10155 16.9839 4.07833 17.0018 4.06205 17.0244C4.04576 17.047 4.03711 17.0733 4.03711 17.1001C4.03711 17.1269 4.04576 17.1531 4.06205 17.1757C4.07833 17.1983 4.10155 17.2162 4.12896 17.2274C5.35984 17.864 8.49429 19.3092 10.3406 20.105L12.3229 19.4047C12.9956 19.1819 13.3176 18.9591 13.4393 18.7299Z" fill="#B4B186"/>
<path d="M71.7057 19.0293C70.7182 20.3599 69.4801 22.0469 68.2707 23.7086L66.9683 25.4912C67.9988 25.3002 69.0507 25.0901 70.0884 24.8545L71.8131 24.4662L72.9509 24.2052L72.9867 24.0014C73.1345 23.1139 73.081 22.2091 72.8293 21.3403C72.6148 20.5159 72.2341 19.7329 71.7057 19.0293Z" fill="#081C15"/>
<path d="M73.6448 17.8072C73.541 17.704 73.4075 17.6281 73.2586 17.5877C73.1097 17.5473 72.9512 17.5439 72.8004 17.578C72.5714 17.8772 72.3066 18.2146 72.0132 18.6157C73.2614 20.2109 73.7902 22.1651 73.4945 24.0908C73.8738 24.0017 74.2102 23.9189 74.5894 23.8298C74.7721 23.7894 74.9374 23.702 75.0646 23.5786C75.1919 23.4552 75.2755 23.3012 75.3051 23.1359C75.4236 22.2848 75.3654 21.4216 75.1333 20.5893C74.8936 19.5696 74.3833 18.6157 73.6448 17.8072Z" fill="#081C15"/>
<path d="M31.5088 4.57696L31.9024 4.46237C32.2387 4.36687 32.6896 4.25863 33.0402 4.1695L33.1833 4.1313C33.2808 4.12158 33.3792 4.12158 33.4767 4.1313C33.5577 4.12473 33.6391 4.12473 33.7201 4.1313C36.2892 4.64062 45.5136 7.25722 50.8951 8.82335L51.5678 8.66419C54.4876 7.97662 57.2929 7.31451 59.5185 6.75427C57.5863 6.48052 53.2496 5.86934 51.6465 5.65288C49.5426 5.36639 33.899 3.41191 32.9758 3.44374C32.0526 3.47558 30.7502 3.84483 30.6142 4.08038C30.4783 4.31594 30.8075 4.29683 31.4658 4.55149L31.5088 4.57696Z" fill="#B4B186"/>
<path d="M37.8708 6.62094C38.3503 6.80556 44.1826 8.70275 47.0308 9.70227L49.9506 9.03381C44.4975 7.44221 36.0245 5.05481 33.6128 4.57734C33.5166 4.55495 33.4156 4.55495 33.3194 4.57734C32.9616 4.66646 32.4392 4.7938 32.0527 4.90203L32.1887 4.94658C32.8471 5.21397 37.2768 6.39175 37.8708 6.62094Z" fill="#081C15"/>
<path d="M34.7934 20.6267L36.425 20.2766C36.4875 20.2602 36.541 20.224 36.5753 20.1747C36.5967 20.1234 36.5967 20.0669 36.5753 20.0156L36.561 19.8564L34.4141 20.2702L34.4714 20.4612C34.4776 20.4922 34.4914 20.5217 34.5117 20.5475C34.5321 20.5732 34.5585 20.5948 34.5892 20.6105C34.6198 20.6263 34.654 20.6359 34.6893 20.6387C34.7245 20.6415 34.7601 20.6374 34.7934 20.6267ZM86.6979 7.59475L88.3009 7.16184C88.3639 7.14285 88.4172 7.10448 88.4512 7.05362C88.4636 7.02855 88.47 7.00144 88.47 6.97404C88.47 6.94664 88.4636 6.91954 88.4512 6.89446L88.3725 6.66526L86.3258 7.3019L86.383 7.47379C86.4069 7.52685 86.4534 7.56937 86.5124 7.59203C86.5714 7.61469 86.6381 7.61566 86.6979 7.59475ZM98.6131 4.00412C97.9391 4.02619 97.2717 3.87832 96.6881 3.57756C94.08 4.76613 91.3743 5.77704 88.5943 6.60159L88.673 6.83715C88.6906 6.88856 88.6966 6.94257 88.6907 6.99605C88.6847 7.04954 88.6669 7.10144 88.6383 7.14878C88.6097 7.19612 88.5709 7.23796 88.524 7.27188C88.4772 7.30581 88.4232 7.33117 88.3653 7.34647L86.7623 7.77301C86.7221 7.77906 86.6809 7.77906 86.6407 7.77301C86.5612 7.77734 86.4819 7.76192 86.4117 7.72846C86.3046 7.67414 86.2251 7.58521 86.1898 7.48016L86.1326 7.31463C82.4685 8.39691 78.0674 9.52377 72.6215 10.9435C73.703 10.6943 74.7997 10.5009 75.9062 10.3641H76.2211C76.5916 10.3348 76.9636 10.4023 77.2916 10.5584C77.6196 10.7145 77.8892 10.9523 78.0674 11.2427C78.4038 11.8475 78.1533 12.516 77.6094 13.1526L78.7831 12.8534C81.0158 12.3186 85.6746 11.0517 88.3224 10.2495C91.8913 9.21389 95.3398 7.87502 98.6203 6.25145C99.2369 5.95744 99.7816 5.55723 100.223 5.07413C100.664 4.59103 100.992 4.03468 101.189 3.4375C100.393 3.80463 99.5101 3.9988 98.6131 4.00412ZM57.7364 15.209C59.1265 14.6125 60.5612 14.1019 62.0302 13.681L57.7364 14.8206C51.1097 16.5905 44.0107 18.3667 36.7757 19.8182L36.8186 19.9647C36.8459 20.0706 36.828 20.1817 36.7685 20.2766C36.7041 20.3693 36.6013 20.4356 36.4823 20.4612L34.8506 20.8114C34.8104 20.8179 34.7692 20.8179 34.729 20.8114C34.628 20.8086 34.5308 20.7766 34.452 20.7204C34.3733 20.6641 34.3173 20.5865 34.2925 20.4994L34.2424 20.3021C31.2009 20.875 28.1452 21.3907 25.1038 21.8109C24.1234 22.2374 22.6921 22.8295 21.2322 23.4088C27.2721 23.3006 33.312 23.0269 35.6665 22.7722C39.7169 22.3711 52.6412 19.328 54.7809 18.8569C55.246 18.7614 56.5127 18.4431 58.2374 18.0165C57.1353 17.2908 57.028 17.1061 56.9779 16.9852C56.8175 16.6597 56.8071 16.2913 56.949 15.9591C57.0909 15.6269 57.3736 15.3576 57.7364 15.209ZM10.4048 23.377C10.9773 23.377 11.5927 23.4216 12.2368 23.4343L12.5159 22.9759C11.8003 22.9759 11.1419 23.0332 10.462 23.046C10.4576 23.1579 10.4384 23.269 10.4048 23.377Z" fill="#081C15"/>
<path d="M9.56054 22.2699C9.7466 22.8047 9.75376 23.2822 9.56054 23.3331C9.36732 23.384 9.07391 22.9893 8.88785 22.4546C8.70179 21.9198 8.69463 21.4487 8.88785 21.3977C9.08107 21.3468 9.36732 21.767 9.56054 22.2699Z" fill="#081C15"/>
<path d="M4.87305 7.06025C5.80336 6.79286 6.94121 6.5 7.01993 6.5C7.09865 6.5 10.2045 10.1543 11.464 11.6759L16.1657 17.3547C15.2854 17.6476 13.9257 18.0295 13.5679 18.1696C11.7145 15.6994 5.78905 8.30806 4.87305 7.06025Z" fill="#081C15"/>
<path d="M27.6875 19.5383C27.8592 20.1113 27.1865 20.3978 25.0182 21.3463C22.8498 22.2949 17.7689 24.3131 16.0585 24.8861C14.5481 25.2489 13.0103 25.5149 11.457 25.6819C11.457 25.6819 13.4679 22.3713 13.8329 21.7856C14.3124 21.0089 15.0996 20.8689 16.9459 20.5951C18.7922 20.3214 25.7267 19.0608 26.5425 19.0353C27.3583 19.0099 27.573 19.1372 27.6875 19.5383Z" fill="#B4B186"/>
<path d="M77.6024 11.4277C77.2947 10.8738 76.6864 10.791 75.9422 10.791C74.6397 10.8674 68.4567 12.2807 66.274 12.8792C64.0914 13.4776 58.8172 15.1329 58.03 15.5976C57.2428 16.0624 57.3144 16.4826 57.4575 16.8391C58.1279 17.4269 58.8723 17.9438 59.676 18.3797C59.8158 18.4689 59.9349 18.5813 60.0266 18.7108C60.5848 18.5198 61.3863 18.2651 62.0304 18.106C62.1072 18.0861 62.1866 18.0754 62.2665 18.0742C62.4048 18.0751 62.5409 18.1051 62.6638 18.1616C62.7867 18.2181 62.8928 18.2996 62.9737 18.3994C63.0545 18.4993 63.1078 18.6146 63.1292 18.7362C63.1505 18.8578 63.1394 18.9821 63.0967 19.0991C62.5098 20.6589 61.7513 22.7471 60.9498 24.8671C59.6044 28.566 58.2018 32.3922 57.6865 33.64C57.6373 33.763 57.5587 33.875 57.4562 33.9685C57.3537 34.0619 57.2296 34.1344 57.0925 34.1811C56.7347 34.3021 56.3769 34.3976 56.1193 34.474L55.8187 34.5504L55.7257 34.8687C55.7184 34.9092 55.7225 34.9508 55.7377 34.9896C55.7529 35.0284 55.7786 35.0632 55.8127 35.091C55.8467 35.1188 55.888 35.1386 55.9327 35.1487C55.9775 35.1587 56.0244 35.1588 56.0692 35.1488L59.1035 34.3721C59.3594 34.3078 59.5932 34.1875 59.7833 34.0219C61.3791 32.6277 72.2066 17.1638 73.2657 16.1961C74.8401 14.8018 78.3181 12.7009 77.6024 11.4277Z" fill="#B4B186"/>
<path d="M62.1736 18.5387C61.5438 18.6978 60.7423 18.9525 60.2128 19.1307C60.2449 19.2822 60.2449 19.4377 60.2128 19.5891L55.9834 34.0281C56.2553 33.9517 56.5774 33.8626 56.928 33.7416C56.9953 33.7196 57.0564 33.6849 57.107 33.6398C57.1577 33.5948 57.1967 33.5404 57.2214 33.4806C58.0229 31.5197 61 23.2371 62.5958 18.9461C62.6152 18.8925 62.6183 18.8352 62.6046 18.7802C62.591 18.7251 62.5612 18.6743 62.5183 18.6328C62.4753 18.5914 62.4208 18.5608 62.3602 18.5443C62.2997 18.5278 62.2353 18.5258 62.1736 18.5387Z" fill="#081C15"/>
<path d="M35.6665 17.2587H35.602L33.9704 17.6088C33.939 17.616 33.9095 17.6287 33.8837 17.6462C33.8579 17.6637 33.8363 17.6856 33.8201 17.7107C33.7981 17.7619 33.7981 17.8186 33.8201 17.8698L34.2924 19.6015L36.4393 19.1877L35.9599 17.4178C35.9446 17.3622 35.9051 17.3141 35.8501 17.2843C35.7951 17.2544 35.7291 17.2452 35.6665 17.2587ZM34.6503 19.4105C34.5429 19.4105 34.4213 19.3405 34.3926 19.2068L34.3497 19.0604C34.3497 18.9267 34.3497 18.7993 34.4928 18.7802H34.5572L34.7218 19.4169L34.6503 19.4105ZM98.8707 1.32361C98.9582 1.39648 99.0236 1.48769 99.0612 1.58891C99.0987 1.69013 99.107 1.7981 99.0854 1.90294L98.2553 1.21538C98.3369 1.14741 98.4112 1.0728 98.4771 0.99255C97.2105 0.0566917 94.9706 -0.121562 92.1868 0.0630635C89.1024 0.266788 83.8497 1.43183 80.0211 2.24673C76.1925 3.06163 67.9771 5.11797 63.0392 6.36578C58.1014 7.61359 39.4235 11.9045 33.77 13.4006C28.5245 14.7949 15.7577 18.7866 9.71777 21.0721C9.98059 21.3662 10.1752 21.7038 10.2903 22.0653C10.2903 22.1481 10.3547 22.2499 10.3833 22.3581C11.2277 22.3581 12.0793 22.3136 12.9309 22.2754L13.0383 22.1035C13.1027 22.008 13.1528 21.9189 13.2029 21.8425L13.3603 21.5878L13.5106 21.3714L13.6108 21.2568C14.2405 20.5692 15.221 20.4228 16.8311 20.1808C17.5467 20.0726 18.978 19.8307 20.5452 19.5442C23.7083 19.0031 25.984 18.6211 26.4849 18.602H26.7211C27.0368 18.5558 27.3605 18.6183 27.6263 18.7768C27.8922 18.9352 28.0802 19.1777 28.1524 19.4551C28.3241 20.0408 28.0379 20.41 27.2364 20.8493C29.4763 20.5055 31.7377 20.1108 34.0205 19.6779L33.584 17.9462C33.5691 17.8944 33.566 17.8404 33.575 17.7875C33.5839 17.7345 33.6046 17.6837 33.636 17.6381C33.6673 17.5924 33.7086 17.5527 33.7575 17.5215C33.8063 17.4902 33.8617 17.468 33.9203 17.456L35.552 17.0995C35.6714 17.0763 35.7962 17.0952 35.9003 17.1521C36.0044 17.2091 36.0796 17.2998 36.1101 17.4051L36.5896 19.1749C43.4239 17.7998 50.4227 16.0809 57.5074 14.1901C70.5963 10.6949 79.3842 8.58128 85.9107 6.7032L85.3239 4.97791C85.3063 4.9265 85.3003 4.87249 85.3062 4.81901C85.3122 4.76552 85.33 4.71362 85.3586 4.66628C85.3872 4.61894 85.4261 4.5771 85.4729 4.54318C85.5198 4.50925 85.5737 4.48389 85.6316 4.46859L87.2346 4.03568C87.3523 4.00558 87.4785 4.01731 87.5866 4.06838C87.6948 4.11945 87.7764 4.20586 87.8143 4.30943L88.3725 5.9647C91.2796 5.10904 94.1037 4.04447 96.8169 2.7815C97.2248 3.41814 99.293 3.68552 101.111 2.73693C100.889 2.36095 100.57 2.03694 100.181 1.79132C99.7919 1.5457 99.3429 1.38544 98.8707 1.32361ZM39.7098 17.4688L39.1802 17.5833C39.0568 17.6103 38.9265 17.5925 38.8178 17.534C38.7091 17.4756 38.631 17.3811 38.6005 17.2714L38.3214 16.2591C38.2931 16.1495 38.3139 16.0344 38.3793 15.9381C38.4448 15.8419 38.5498 15.772 38.6721 15.7435L39.2088 15.6289C39.3322 15.602 39.4625 15.6197 39.5712 15.6782C39.6799 15.7367 39.758 15.8311 39.7885 15.9408L40.0676 16.9595C40.0955 17.0692 40.0735 17.1842 40.0065 17.2796C39.9395 17.375 39.8328 17.443 39.7098 17.4688ZM43.0446 16.6157L42.5079 16.7303C42.3845 16.7572 42.2542 16.7394 42.1455 16.6809C42.0368 16.6225 41.9587 16.528 41.9282 16.4183L41.6563 15.3997C41.6414 15.3457 41.6386 15.2897 41.6482 15.2348C41.6578 15.18 41.6796 15.1273 41.7122 15.0799C41.7448 15.0326 41.7876 14.9914 41.8382 14.9589C41.8888 14.9264 41.9461 14.9031 42.0069 14.8904L42.5436 14.7758C42.6043 14.7616 42.6676 14.7585 42.7296 14.7667C42.7916 14.7748 42.8512 14.794 42.9047 14.8232C42.9581 14.8523 43.0044 14.8908 43.0408 14.9362C43.0771 14.9817 43.1028 15.0332 43.1161 15.0877L43.3952 16.1C43.4255 16.2097 43.4056 16.3257 43.3398 16.4224C43.2741 16.519 43.1679 16.5886 43.0446 16.6157ZM46.3723 15.7626L45.8355 15.8772C45.7133 15.9005 45.5857 15.8812 45.4791 15.8231C45.3725 15.765 45.2952 15.6727 45.263 15.5652L44.9839 14.5466C44.9558 14.4378 44.9768 14.3235 45.0423 14.2282C45.1079 14.133 45.2128 14.0644 45.3346 14.0373L45.8713 13.9163C45.9946 13.8911 46.124 13.9096 46.2322 13.9678C46.3404 14.0261 46.4188 14.1195 46.451 14.2283L46.7229 15.2469C46.7532 15.3566 46.7332 15.4726 46.6675 15.5693C46.6017 15.6659 46.4956 15.7355 46.3723 15.7626ZM49.7071 14.9031L49.1704 15.0177C49.047 15.0446 48.9167 15.0269 48.808 14.9684C48.6993 14.9099 48.6212 14.8154 48.5907 14.7057L48.3188 13.6935C48.2885 13.5838 48.3084 13.4678 48.3742 13.3711C48.4399 13.2745 48.5461 13.2049 48.6694 13.1778L49.2061 13.0632C49.2668 13.05 49.3297 13.0475 49.3914 13.0561C49.4531 13.0646 49.5123 13.0839 49.5655 13.1129C49.6188 13.142 49.665 13.1801 49.7016 13.2251C49.7382 13.2701 49.7644 13.3211 49.7786 13.3752L50.0577 14.3938C50.0737 14.4478 50.0771 14.504 50.068 14.5592C50.0588 14.6144 50.0372 14.6674 50.0045 14.715C49.9717 14.7625 49.9285 14.8037 49.8774 14.8361C49.8263 14.8684 49.7683 14.8912 49.7071 14.9031ZM53.0204 14.05L52.4837 14.1646C52.4231 14.1779 52.3601 14.1803 52.2984 14.1718C52.2367 14.1632 52.1776 14.1439 52.1243 14.1149C52.0711 14.0859 52.0248 14.0478 51.9883 14.0027C51.9517 13.9577 51.9255 13.9067 51.9112 13.8527L51.6321 12.834C51.6172 12.7801 51.6145 12.7241 51.6241 12.6692C51.6337 12.6143 51.6554 12.5617 51.688 12.5143C51.7206 12.4669 51.7635 12.4258 51.8141 12.3933C51.8647 12.3607 51.922 12.3374 51.9828 12.3247L52.5195 12.2101C52.6429 12.1832 52.7732 12.2009 52.8819 12.2594C52.9905 12.3179 53.0687 12.4124 53.0992 12.5221L53.3711 13.5343C53.4013 13.6441 53.3814 13.76 53.3157 13.8567C53.2499 13.9534 53.1437 14.0229 53.0204 14.05ZM56.3553 13.1969L55.8185 13.3115C55.6953 13.3367 55.5659 13.3182 55.4577 13.26C55.3495 13.2018 55.271 13.1084 55.2389 12.9996L54.9669 11.9809C54.951 11.927 54.9475 11.8707 54.9567 11.8155C54.9658 11.7603 54.9875 11.7073 55.0202 11.6598C55.053 11.6122 55.0962 11.571 55.1473 11.5387C55.1984 11.5063 55.2563 11.4835 55.3176 11.4716L55.8543 11.3507C55.9765 11.3273 56.1041 11.3467 56.2107 11.4047C56.3173 11.4628 56.3947 11.5552 56.4268 11.6626L56.7059 12.6812C56.7348 12.7892 56.716 12.9028 56.6534 12.9988C56.5908 13.0947 56.4892 13.1657 56.3696 13.1969H56.3553ZM59.6829 12.3375L59.1462 12.452C59.0856 12.4653 59.0226 12.4677 58.9609 12.4592C58.8992 12.4507 58.8401 12.4313 58.7868 12.4023C58.7336 12.3733 58.6873 12.3352 58.6508 12.2902C58.6142 12.2452 58.588 12.1942 58.5737 12.1401L58.2946 11.1278C58.2644 11.0181 58.2843 10.9021 58.35 10.8055C58.4158 10.7088 58.522 10.6393 58.6453 10.6122L59.182 10.4976C59.3054 10.4706 59.4357 10.4884 59.5444 10.5469C59.653 10.6054 59.7312 10.6998 59.7617 10.8095L60.0336 11.8282C60.0497 11.8812 60.0538 11.9367 60.0455 11.9912C60.0373 12.0457 60.0169 12.0982 59.9856 12.1456C59.9543 12.193 59.9126 12.2344 59.8631 12.2674C59.8136 12.3003 59.7572 12.3241 59.6973 12.3375H59.6829ZM63.0392 11.4844L62.5025 11.599C62.3792 11.6259 62.2488 11.6081 62.1401 11.5496C62.0315 11.4912 61.9533 11.3967 61.9229 11.287L61.6509 10.2684C61.636 10.2144 61.6333 10.1584 61.6429 10.1035C61.6525 10.0486 61.6742 9.996 61.7068 9.94864C61.7394 9.90128 61.7823 9.86014 61.8329 9.8276C61.8835 9.79506 61.9408 9.77178 62.0016 9.75908L62.5311 9.64447C62.6545 9.61756 62.7848 9.63529 62.8935 9.69378C63.0022 9.75226 63.0803 9.84674 63.1108 9.95643L63.3899 10.9687C63.4182 11.0783 63.3974 11.1935 63.332 11.2897C63.2665 11.386 63.1615 11.4558 63.0392 11.4844ZM66.3669 10.6313L65.8302 10.7459C65.7078 10.7709 65.5794 10.7522 65.4723 10.6939C65.3653 10.6356 65.2882 10.5422 65.2577 10.4339L64.9786 9.41529C64.9483 9.30554 64.9683 9.18961 65.034 9.09292C65.0998 8.99624 65.2059 8.92672 65.3292 8.89961L65.866 8.785C65.9883 8.75998 66.1168 8.77864 66.2238 8.83697C66.3309 8.8953 66.4079 8.98865 66.4385 9.09697L66.7176 10.1156C66.7324 10.1704 66.735 10.2272 66.725 10.2829C66.715 10.3385 66.6928 10.3918 66.6595 10.4398C66.6262 10.4877 66.5826 10.5293 66.5312 10.5622C66.4797 10.5951 66.4214 10.6185 66.3597 10.6313H66.3669ZM69.6946 9.7718L69.165 9.88639C69.0416 9.9133 68.9113 9.89557 68.8026 9.83708C68.694 9.77859 68.6158 9.68414 68.5854 9.57444L68.3063 8.56219C68.2782 8.45168 68.2999 8.33578 68.3668 8.23937C68.4337 8.14295 68.5404 8.07372 68.6641 8.04652L69.1936 7.93191C69.317 7.905 69.4473 7.92273 69.556 7.98122C69.6647 8.0397 69.7428 8.13418 69.7733 8.24387L70.0524 9.26248C70.0661 9.31724 70.0675 9.37388 70.0566 9.42914C70.0457 9.4844 70.0226 9.5372 69.9887 9.58451C69.9548 9.63182 69.9107 9.67271 69.859 9.70485C69.8073 9.73699 69.749 9.75974 69.6874 9.7718H69.6946ZM73.0294 8.91871L72.4927 9.0333C72.432 9.04746 72.3688 9.05055 72.3067 9.04241C72.2447 9.03427 72.1851 9.01505 72.1317 8.98591C72.0782 8.95677 72.0319 8.91832 71.9955 8.87286C71.9592 8.82739 71.9336 8.77586 71.9202 8.72135L71.6411 7.70273C71.6262 7.64879 71.6235 7.59275 71.633 7.53787C71.6426 7.48299 71.6644 7.43035 71.697 7.38299C71.7296 7.33563 71.7724 7.29449 71.823 7.26195C71.8736 7.22941 71.931 7.2061 71.9917 7.1934L72.5285 7.07881C72.5891 7.06465 72.6524 7.06156 72.7144 7.0697C72.7765 7.07784 72.836 7.09706 72.8895 7.1262C72.943 7.15534 72.9893 7.19381 73.0256 7.23927C73.062 7.28474 73.0876 7.33627 73.101 7.39078L73.3801 8.40303C73.4114 8.50934 73.3954 8.62231 73.3354 8.71838C73.2754 8.81445 73.176 8.88621 73.058 8.91871H73.0294ZM76.3571 8.06561L75.8275 8.1802C75.7043 8.2054 75.5748 8.18693 75.4666 8.1287C75.3584 8.07047 75.28 7.97707 75.2478 7.86826L74.9688 6.84963C74.9404 6.73999 74.9612 6.62485 75.0266 6.52859C75.0921 6.43234 75.1971 6.36253 75.3194 6.33396L75.8561 6.21935C75.9794 6.19415 76.1088 6.21262 76.217 6.27085C76.3252 6.32908 76.4037 6.42251 76.4358 6.53131L76.7077 7.54994C76.7226 7.60471 76.7251 7.66156 76.7152 7.7172C76.7052 7.77285 76.6829 7.82618 76.6497 7.87413C76.6164 7.92207 76.5728 7.96368 76.5213 7.99655C76.4699 8.02941 76.4116 8.05289 76.3499 8.06561H76.3571ZM79.6919 7.20615L79.1552 7.32074C79.0318 7.34765 78.9015 7.32992 78.7928 7.27143C78.6841 7.21294 78.606 7.11849 78.5755 7.00879L78.3036 5.99654C78.2733 5.88679 78.2933 5.77084 78.359 5.67416C78.4248 5.57748 78.5309 5.50797 78.6542 5.48086L79.191 5.36625C79.2516 5.353 79.3146 5.35059 79.3763 5.35912C79.4379 5.36766 79.4971 5.38698 79.5504 5.41599C79.6036 5.445 79.6498 5.48311 79.6864 5.52811C79.723 5.57312 79.7492 5.62415 79.7635 5.67822L80.0426 6.69683C80.0584 6.75123 80.0616 6.80794 80.052 6.86349C80.0424 6.91903 80.0202 6.97225 79.9867 7.01991C79.9532 7.06756 79.9092 7.10866 79.8573 7.14067C79.8054 7.17269 79.7467 7.19497 79.6847 7.20615H79.6919ZM83.0196 6.35306L82.4828 6.46765C82.4222 6.4809 82.3592 6.48333 82.2976 6.4748C82.2359 6.46626 82.1767 6.44692 82.1235 6.41791C82.0702 6.3889 82.024 6.35079 81.9874 6.30579C81.9508 6.26078 81.9246 6.20977 81.9104 6.1557L81.6313 5.13707C81.6031 5.02824 81.6241 4.91394 81.6897 4.81872C81.7552 4.72349 81.8602 4.65491 81.9819 4.62775L82.5186 4.51316C82.642 4.48625 82.7723 4.50398 82.881 4.56247C82.9897 4.62096 83.0678 4.71543 83.0983 4.82513L83.3702 5.83738C83.3851 5.89215 83.3876 5.949 83.3777 6.00464C83.3677 6.06029 83.3454 6.11362 83.3122 6.16157C83.2789 6.20951 83.2353 6.25112 83.1838 6.28399C83.1324 6.31685 83.0741 6.34033 83.0124 6.35306H83.0196ZM97.2319 2.53322C97.0804 2.3292 96.9442 2.11652 96.824 1.89659C97.028 1.84592 97.2267 1.7799 97.418 1.69923L98.1336 2.59689C97.8295 2.61075 97.5246 2.59365 97.2248 2.54595L97.2319 2.53322ZM98.563 2.53322L97.7615 1.55917C97.8905 1.49008 98.0126 1.41127 98.1265 1.32361L98.9924 2.12577C98.889 2.29458 98.7387 2.43703 98.5559 2.53958L98.563 2.53322ZM87.3706 4.18849H87.3062L85.7032 4.6214C85.6416 4.63764 85.5898 4.67485 85.559 4.72493C85.5282 4.77501 85.5208 4.8339 85.5386 4.88877L86.1182 6.60771C86.8339 6.40398 87.5495 6.20026 88.1721 5.97107L87.6139 4.30943C87.5922 4.26952 87.5572 4.23653 87.5136 4.21489C87.4701 4.19326 87.4202 4.18405 87.3706 4.18849ZM86.4904 6.38488C86.383 6.38488 86.2614 6.32759 86.2184 6.1939L86.1683 6.05383C86.1433 6.00038 86.1419 5.94046 86.1644 5.88613C86.187 5.8318 86.2319 5.78707 86.29 5.76097H86.3616L86.5619 6.39761L86.4904 6.38488Z" fill="#081C15"/>
<path d="M32.1314 14.2094C29.2374 13.8857 26.4539 13.0176 23.9661 11.6629C21.991 10.6315 11.0848 5.0673 10.2905 4.83811C9.49612 4.60892 6.27579 5.11186 4.35791 5.85036C4.44379 5.98406 4.63701 6.23871 4.90179 6.58249C5.60515 6.36735 6.32199 6.18879 7.04867 6.04772C7.36355 6.04772 7.47089 6.04773 11.9078 11.4082L13.4965 13.3181C13.6325 13.229 13.8257 13.108 14.069 12.9744L14.5127 12.7452C14.5127 12.6879 14.4483 12.6433 14.4196 12.586C14.1623 12.1061 14.1124 11.5587 14.2797 11.0483C14.4469 10.5378 14.8195 10.0999 15.3264 9.81816C15.8333 9.53642 16.439 9.43053 17.0281 9.52065C17.6171 9.61078 18.1482 9.89063 18.5202 10.3068C18.7277 10.2432 18.9353 10.1922 19.1142 10.1477C19.2931 10.1031 19.6223 10.0395 19.7869 10.014L20.0445 9.97579C20.0445 9.97579 19.9729 10.0331 19.8369 10.1222C19.701 10.2113 19.5078 10.3259 19.2644 10.4596L18.8136 10.6952C18.8512 10.746 18.8847 10.7992 18.9138 10.8543C19.1407 11.3307 19.169 11.8635 18.9935 12.3567C18.8179 12.85 18.4502 13.2712 17.9564 13.5446C17.4627 13.818 16.8754 13.9255 16.3004 13.8478C15.7255 13.7701 15.2006 13.5123 14.8204 13.1208L14.2264 13.2799C13.9616 13.3372 13.7398 13.3818 13.5752 13.4073C14.8562 14.9543 16.2731 16.6669 16.6095 17.0807L17.0031 17.5645L16.3733 17.7746C15.9296 17.9274 15.3571 18.0993 14.849 18.2521L14.3409 18.4049C14.5198 18.9397 14.6057 19.3025 13.2102 19.7991C15.9296 19.2198 32.1314 14.2094 32.1314 14.2094Z" fill="#B4B186"/>
<path d="M17.84 11.5295C17.1783 11.69 16.5302 11.8921 15.9007 12.1343C15.4069 12.3252 14.9346 12.5353 14.5195 12.7391C14.6047 12.8772 14.7054 13.0073 14.8201 13.1274C15.2423 13.0064 15.7075 12.8537 16.1655 12.6754C16.7941 12.4341 17.4037 12.1555 17.9903 11.8414C18.2336 11.7077 18.4269 11.5867 18.5628 11.4976L18.7704 11.3576L18.5127 11.3894C18.3481 11.4212 18.112 11.4658 17.84 11.5295ZM15.4999 11.9114C16.1613 11.7499 16.8093 11.5478 17.4393 11.3066C17.9259 11.1156 18.4054 10.9055 18.8133 10.7018C18.7349 10.5616 18.6363 10.431 18.5199 10.3135C18.0977 10.4344 17.6325 10.5872 17.1745 10.7655C16.5445 10.9967 15.9345 11.2691 15.3497 11.5804C15.1063 11.7141 14.9131 11.8287 14.7772 11.9178C14.6412 12.0069 14.5696 12.0642 14.5696 12.0642C14.6563 12.0562 14.7423 12.0434 14.8273 12.026C14.9918 12.0197 15.228 11.9751 15.4999 11.9114Z" fill="#081C15"/>
</g>
<defs>
<filter id="filter0_d_5066_18" x="0" y="-0.00195312" width="107" height="48.002" filterUnits="userSpaceOnUse" color-interpolation-filters="sRGB">
<feFlood flood-opacity="0" result="BackgroundImageFix"/>
<feColorMatrix in="SourceAlpha" type="matrix" values="0 0 0 0 0 0 0 0 0 0 0 0 0 0 0 0 0 0 127 0" result="hardAlpha"/>
<feOffset dy="4"/>
<feGaussianBlur stdDeviation="2"/>
<feComposite in2="hardAlpha" operator="out"/>
<feColorMatrix type="matrix" values="0 0 0 0 0 0 0 0 0 0 0 0 0 0 0 0 0 0 0.25 0"/>
<feBlend mode="normal" in2="BackgroundImageFix" result="effect1_dropShadow_5066_18"/>
<feBlend mode="normal" in="SourceGraphic" in2="effect1_dropShadow_5066_18" result="shape"/>
</filter>
</defs>
</svg>
