<svg width="375" height="71" viewBox="0 0 375 71" fill="none" xmlns="http://www.w3.org/2000/svg">
<g style="mix-blend-mode:color-burn">
<path d="M53 0.999995V20.4H36.5V71H16.5V20.4H7.07805e-08V0.999995H53ZM100.08 70.9L88.9805 48.9H83.9805V70.9H63.9805V0.899997H91.9805C99.6471 0.899997 105.98 3.16666 110.98 7.7C115.98 12.1667 118.48 18.1 118.48 25.5C118.48 29.6333 117.514 33.3667 115.58 36.7C113.714 40.0333 111.08 42.7333 107.68 44.8L121.48 70.9H100.08ZM83.9805 19.3V32.3H91.5805C93.7138 32.3667 95.3805 31.8333 96.5805 30.7C97.8471 29.5667 98.4805 27.9667 98.4805 25.9C98.4805 23.8333 97.8471 22.2333 96.5805 21.1C95.3805 19.9 93.7138 19.3 91.5805 19.3H83.9805ZM173.934 71L171.534 62H151.334L148.934 71H127.434L149.734 0.999995H173.134L195.434 71H173.934ZM155.634 46H167.234L161.434 24.5L155.634 46ZM217.745 71L195.445 0.999995H217.445L228.945 45.5L240.445 0.999995H262.445L240.145 71H217.745ZM292.438 52.6H318.438V71H272.438V0.999995H317.937V19.2H292.438V26.8H315.438V44.8H292.438V52.6ZM351.441 51.6H374.441V71H331.441V0.999995H351.441V51.6Z" fill="#A5AAB0"/>
</g>
</svg>
