<svg width="58" height="48" viewBox="0 0 58 48" fill="none" xmlns="http://www.w3.org/2000/svg">
<g clip-path="url(#clip0_8808_951)">
<path d="M27.7176 3.98935C35.1747 4.26588 34.2419 11.8713 39.4854 16.1667C44.8181 20.5352 54.6004 19.8442 54.6695 25.9809C54.7391 32.1627 48.1 32.3599 42.6862 36.726C37.4616 40.9396 37.3792 47.8884 30 48C22.5036 48.1134 20.0089 39.056 14.7319 34.7502C9.45565 30.4451 0.0500015 31.8224 0.51419 25.7742C0.955374 20.0258 9.85176 20.7854 14.9773 16.785C20.6859 12.3295 19.7903 3.69538 27.7176 3.98935Z" fill="#6F53AF"/>
<path d="M27.7204 0.2749C35.1773 0.551186 34.2441 8.15635 39.4872 12.4514C44.8195 16.8195 54.6015 16.1283 54.6702 22.2648C54.7395 28.4463 44.901 27.8956 39.4872 32.2618C34.2626 36.4754 34.8789 44.8881 27.5 45C20.0039 45.1136 20.2566 36.5672 14.9799 32.2618C9.70411 27.957 0.0525356 28.1077 0.516997 22.0598C0.958439 16.3116 9.85445 17.0709 14.9799 13.0705C20.6885 8.61495 19.7935 -0.0188049 27.7204 0.2749Z" fill="#CC3EF3"/>
<g filter="url(#filter0_i_8808_951)">
<path d="M30.8138 4.71742C38.2706 4.9937 35.5 13 41.5004 16.5C48.5893 20.6349 56.4658 19.3383 54.1691 24.0803C51.8725 28.8224 44.0515 28.8226 40.7694 31.1935C33.1109 36.7258 35.7939 43.9992 29 45C21.6267 46.0862 20.6072 39.4918 17.0264 34.3547C13.3471 29.0763 5.45874 30.1283 5.9232 24.0803C6.36464 18.3321 13.4347 20.1776 18.5602 16.1773C24.2688 11.7217 22.8868 4.42371 30.8138 4.71742Z" fill="#BA00FF" fill-opacity="0.25"/>
</g>
<g filter="url(#filter1_i_8808_951)">
<path d="M30.7898 1.06506C38.2466 1.34135 37.3135 8.94651 42.5565 13.2416C47.8888 17.6097 57.6708 16.9184 57.7396 23.0549C57.8089 29.2365 47.9703 28.6858 42.5565 33.052C37.3319 37.2655 37.8789 45.3881 30.5 45.5C23.0039 45.6136 23.3259 37.3574 18.0493 33.052C12.7735 28.7472 3.12187 28.8979 3.58633 22.8499C4.02777 17.1017 12.9238 17.861 18.0493 13.8606C23.7579 9.40511 22.8628 0.771356 30.7898 1.06506Z" fill="#BA00FF" fill-opacity="0.3"/>
</g>
</g>
<defs>
<filter id="filter0_i_8808_951" x="5.90332" y="4.70886" width="48.6719" height="110.41" filterUnits="userSpaceOnUse" color-interpolation-filters="sRGB">
<feFlood flood-opacity="0" result="BackgroundImageFix"/>
<feBlend mode="normal" in="SourceGraphic" in2="BackgroundImageFix" result="shape"/>
<feColorMatrix in="SourceAlpha" type="matrix" values="0 0 0 0 0 0 0 0 0 0 0 0 0 0 0 0 0 0 127 0" result="hardAlpha"/>
<feOffset dy="70"/>
<feGaussianBlur stdDeviation="70"/>
<feComposite in2="hardAlpha" operator="arithmetic" k2="-1" k3="1"/>
<feColorMatrix type="matrix" values="0 0 0 0 1 0 0 0 0 1 0 0 0 0 1 0 0 0 0.3 0"/>
<feBlend mode="normal" in2="shape" result="effect1_innerShadow_8808_951"/>
</filter>
<filter id="filter1_i_8808_951" x="3.57031" y="1.05774" width="54.1699" height="114.443" filterUnits="userSpaceOnUse" color-interpolation-filters="sRGB">
<feFlood flood-opacity="0" result="BackgroundImageFix"/>
<feBlend mode="normal" in="SourceGraphic" in2="BackgroundImageFix" result="shape"/>
<feColorMatrix in="SourceAlpha" type="matrix" values="0 0 0 0 0 0 0 0 0 0 0 0 0 0 0 0 0 0 127 0" result="hardAlpha"/>
<feOffset dy="70"/>
<feGaussianBlur stdDeviation="70"/>
<feComposite in2="hardAlpha" operator="arithmetic" k2="-1" k3="1"/>
<feColorMatrix type="matrix" values="0 0 0 0 1 0 0 0 0 1 0 0 0 0 1 0 0 0 0.32 0"/>
<feBlend mode="normal" in2="shape" result="effect1_innerShadow_8808_951"/>
</filter>
<clipPath id="clip0_8808_951">
<rect width="58" height="48" fill="white"/>
</clipPath>
</defs>
</svg>
